<svg width="40" height="40" viewBox="0 0 40 40" fill="none" xmlns="http://www.w3.org/2000/svg">
<g filter="url(#filter0_d_3528_587)">
<rect x="3.55566" y="3.55566" width="32" height="32" rx="2.37037" fill="#5C95FF"/>
<rect x="2.37048" y="2.37048" width="34.3704" height="34.3704" rx="3.55556" stroke="white" stroke-width="2.37037"/>
</g>
<path d="M15.0557 25.6693V13.3057H19.4626C20.4245 13.3057 21.2214 13.4807 21.8532 13.8309C22.4851 14.181 22.958 14.6599 23.2719 15.2677C23.5858 15.8714 23.7428 16.5515 23.7428 17.3081C23.7428 18.0688 23.5838 18.753 23.2659 19.3607C22.952 19.9644 22.4771 20.4433 21.8412 20.7975C21.2093 21.1476 20.4144 21.3227 19.4566 21.3227H16.426V19.741H19.2876C19.8953 19.741 20.3883 19.6364 20.7666 19.4271C21.1449 19.2138 21.4226 18.924 21.5997 18.5578C21.7768 18.1916 21.8653 17.775 21.8653 17.3081C21.8653 16.8413 21.7768 16.4268 21.5997 16.0645C21.4226 15.7023 21.1429 15.4186 20.7606 15.2133C20.3823 15.0081 19.8832 14.9055 19.2634 14.9055H16.9211V25.6693H15.0557Z" fill="white"/>
<defs>
<filter id="filter0_d_3528_587" x="0.000361681" y="0.00011754" width="39.1106" height="39.1111" filterUnits="userSpaceOnUse" color-interpolation-filters="sRGB">
<feFlood flood-opacity="0" result="BackgroundImageFix"/>
<feColorMatrix in="SourceAlpha" type="matrix" values="0 0 0 0 0 0 0 0 0 0 0 0 0 0 0 0 0 0 127 0" result="hardAlpha"/>
<feMorphology radius="1.18519" operator="dilate" in="SourceAlpha" result="effect1_dropShadow_3528_587"/>
<feOffset/>
<feComposite in2="hardAlpha" operator="out"/>
<feColorMatrix type="matrix" values="0 0 0 0 0 0 0 0 0 0 0 0 0 0 0 0 0 0 1 0"/>
<feBlend mode="normal" in2="BackgroundImageFix" result="effect1_dropShadow_3528_587"/>
<feBlend mode="normal" in="SourceGraphic" in2="effect1_dropShadow_3528_587" result="shape"/>
</filter>
</defs>
</svg>
