<svg width="411" height="269" viewBox="0 0 411 269" fill="none" xmlns="http://www.w3.org/2000/svg">
<g clip-path="url(#clip0_3554_2)">
<mask id="mask0_3554_2" style="mask-type:alpha" maskUnits="userSpaceOnUse" x="0" y="0" width="411" height="269">
<rect width="411" height="269" fill="url(#paint0_radial_3554_2)"/>
</mask>
<g mask="url(#mask0_3554_2)">
<path d="M439.5 7.99987C439.5 7.99987 377 13 350.5 13.9999C324 14.9997 327.949 13.9999 313.5 13.9999C300.613 13.9999 290.5 14.5 280.5 13.9999C270.5 13.4997 239.2 8.0999 232 6.4999C224.8 4.89991 219 7.9998 217 10.4999C215 13 213.5 16.4999 213.5 16.4999L194 53.9999C194 53.9999 172.5 84.5 161.5 104.5C157 116.5 155.5 122 155.5 122C155.5 122 154.286 124.42 153 125.5C151.389 126.852 149.872 126.542 148 127.5C145.009 129.029 141 132.5 141 132.5C141 132.5 138.919 133.579 137.5 133.5C136.015 133.418 134 132 134 132L96.9999 105.5C96.9999 105.5 95.8365 104.416 95.4999 103.5C95.0958 102.4 95.4999 100.5 95.4999 100.5C95.4999 100.5 96.5 93.5 97.4999 90.9999C99.2161 88.7671 100 88.5 103.5 86.9999C110 85 116.167 88.8332 121 86.4999C125.833 84.1665 136.2 75.5999 139 59.9999C139.8 50.7999 141 -15.8333 141 -29M7 111.5L43.5 110.5C44.8333 110 47.1 108.5 45.5 106.5C43.9 104.5 43.5 97.3333 43.5 94C43.5 79.0883 54.9806 67 69.4999 67C84.0192 67 87 72.5 92 78.5L96 -27.5M99.5 -30.5L94 81C94 81 95 82 96 82C97 82 98.5 80 102.5 79C106.5 78 114 80.5 118.5 78.5C123 76.4999 131.5 66.7 131.5 53.5C131.5 40.3 133.833 -14.5 134 -23.5M400.5 282L405.5 181.5C405.5 181.5 405.318 179.473 406 178.5C406.752 177.427 409 177 409 177H428M427 16.5L395.5 18.5C395.5 18.5 393.339 18.6601 392.5 19.5C391.66 20.3399 392 22 392 22C395.833 58.8333 403.8 138.1 405 160.5V166.5C405 168 409 169 409 169H433.5M15.5 118.5H49C49 118.5 57.7214 121.286 63.5 121.5C66.8229 121.623 72 121 72 121L106 178.5C106 178.5 106.608 179.634 106.5 180.5C106.413 181.199 106 182 106 182L73 226L57.5 248L46.5 268.5L41 283M387 282L391.5 182L388.5 176.5L303 172L283.5 169L225.5 156L161 134.5C161 134.5 157.003 133.532 154.5 134C152.181 134.433 151.039 135.312 149 136.5C144.346 139.212 129 163 125.5 168.5C113.753 186.96 108.5 193 108.5 193L118.5 202.5C118.5 202.5 126.755 209.802 133.5 212.5C136 213.5 137.443 214.622 139.5 213.5C145 210.5 147.264 206.758 150 201C151.911 196.978 150.5 192 153 190C155.5 188 156.5 189 157.5 191.5C158.5 194 158.408 198.001 157.5 202C155.977 208.708 147.5 216.5 147.5 216.5C147.5 216.5 141.534 221.243 137 221.5C133.595 221.693 131.616 220.885 128.5 219.5C124 217.5 118.284 213.162 114 209.5C108.408 204.719 104.5 201 104.5 201L102.5 202L61.5 257.5L50 282.5M109 177.5L132 142.5C132 142.5 132.238 141.244 132 140.5C131.785 139.83 131 139 131 139C131 139 101 117.5 92 112C90.5 111.5 89.7879 112.003 88.5 112.5C87 114.5 86.0511 115.597 84 117C80.9424 119.092 75 120 75 120L109 177.5ZM88 94C88 104.493 79.7173 113 69.5 113C59.2827 113 51 104.493 51 94C51 83.5066 59.2827 75 69.5 75C79.7173 75 88 83.5066 88 94ZM378 23C383.333 61.1667 393.5 142.3 391.5 161.5C391.5 165.5 391.5 168 389 168C387 168 332.833 165.333 306 164C286.333 160.5 244.2 152.7 233 149.5C221.8 146.3 184 133.167 166.5 127C166.5 127 165.054 126.495 164.5 125.5C163.828 124.294 164.5 122 164.5 122L168 110L194.5 67.5L222 19C222 19 223.5 16.5 225 16C226.5 15.5001 230 16 230 16L278.5 22.5L335 23L371.5 20C371.5 20 375.5 19.5 376.5 20.5C377 21 378 23 378 23Z" stroke="white"/>
<path d="M386.5 204.5L379 281L262.5 289L269 227.455L247.5 225.5L250.5 194L230.5 192L233 169L276 173.5L275 184.5H279.5L278.5 196.5H282.5V198L287.5 199.5V204.5L301.5 206L305 175.5H308.5V178.5L369.5 184.5L367.5 202.5L386.5 204.5Z" fill="white" fill-opacity="0.2"/>
<path d="M115.5 194.5L116 200V200.5L127.5 209L135 213L138 213.5L141 212.5L144 210L147 206.5L150.5 200L150 186H143L144 169H152V163.5L160 164L159.5 170L166.5 171L167.5 165L176.5 165.5L175.5 171L183 171.5V173.5L228.5 177.5L230 159.5L185.5 157.5V155.5L178 154.5V150H170L169 154L161.5 153V149L153.5 148L153 154L145 153.5L144 163.5L136 163L135 172.5L129.5 172L114 193L115.5 194.5Z" fill="white" fill-opacity="0.2"/>
<path d="M176 114.5L219 43L255 64L237 94L232 91.5L228 98.5L215.5 91.5L202.5 112.5L225.5 118.5L227 114.5L288.5 128.5L293.5 111H331V108H337V106H354.5L351.5 82.5L372 81L375 114.5H379V149L341.5 147V144L309.5 142.5L305 154L285 147L223 132.5L221.5 136.5C211 133.667 188 127.4 180 125C172 122.6 174 117 176 114.5Z" fill="white" fill-opacity="0.2"/>
<path d="M347.5 51.5L299.5 47L301 24.5L340 27.5V24.5L367 22.5L372.5 76.5L351 79L347.5 51.5Z" fill="white" fill-opacity="0.2"/>
<path d="M227 33L220.5 44.5L232 53.5L241 36.5L244.5 32H247.5V21L231 19.5L223 31L227 33Z" fill="white" fill-opacity="0.2"/>
<path d="M249.5 34.5L250.5 22L257.5 23L256 35L249.5 34.5Z" fill="white" fill-opacity="0.2"/>
<path d="M283.5 40L259 38L260 23L284.5 25L283.5 40Z" fill="white" fill-opacity="0.2"/>
<path d="M299.5 26L297.5 46L284.5 44.5L286.5 25L299.5 26Z" fill="white" fill-opacity="0.2"/>
<path d="M211 215.5C194.5 214 161.4 211 161 211L159 223L210 227.5L211 215.5Z" fill="white" fill-opacity="0.2"/>
<path d="M241.5 218.5L240.5 229.5L228.25 228.5L216 227.5L217.5 215.5L229.5 217L241.5 218.5Z" fill="white" fill-opacity="0.2"/>
<path d="M189.5 192L166.5 189.5L165.5 195L171 196V198.5L183.5 199.5V202.5H189L189.5 192Z" fill="white" fill-opacity="0.2"/>
<path d="M219.5 203L221 196H226.5L225 204L219.5 203Z" fill="white" fill-opacity="0.2"/>
<path d="M167.5 185.5L169.5 173.5H163L161.5 185L167.5 185.5Z" fill="white" fill-opacity="0.2"/>
<path d="M127 140L90.5 114L81 127L87 133.5L92 143L99.5 140.5L102 143L96.5 151L104.5 165.5L107.5 166.5L127 140Z" fill="white" fill-opacity="0.2"/>
<path d="M20 177L12.5 175.5L13.5 120.5H42.5L20 177Z" fill="white" fill-opacity="0.2"/>
<path d="M45.5 129.5L35.5 145L72.5 171.5L62 185L35 165.5L15 191.5L13.5 202L57 231.5L97.5 171.5L78.5 159L83 153.5L50.5 130.5L49 132.5L45.5 129.5Z" fill="white" fill-opacity="0.2"/>
</g>
</g>
<defs>
<radialGradient id="paint0_radial_3554_2" cx="0" cy="0" r="1" gradientUnits="userSpaceOnUse" gradientTransform="translate(205.5 135) rotate(88.5169) scale(154.552 218.896)">
<stop/>
<stop offset="1" stop-opacity="0.08"/>
</radialGradient>
<clipPath id="clip0_3554_2">
<rect width="411" height="269" fill="white"/>
</clipPath>
</defs>
</svg>
