<svg width="17" height="17" viewBox="0 0 17 17" fill="none" xmlns="http://www.w3.org/2000/svg">
<path d="M7.65918 0.962891C7.95636 0.323053 8.86685 0.32309 9.16406 0.962891L11.1016 5.13672C11.1025 5.13874 11.1052 5.14035 11.1074 5.14062L15.6748 5.69434C16.3752 5.77922 16.6563 6.64363 16.1396 7.12402L12.7695 10.2568C12.7678 10.2584 12.7671 10.2614 12.7676 10.2637L13.6523 14.7783C13.7881 15.4707 13.0521 16.0061 12.4355 15.6631L8.41504 13.4258C8.41303 13.4247 8.41021 13.4247 8.4082 13.4258L4.3877 15.6631C3.77115 16.0061 3.03519 15.4707 3.1709 14.7783L4.05566 10.2637C4.05611 10.2614 4.05539 10.2584 4.05371 10.2568L0.683594 7.12402C0.167066 6.64363 0.448114 5.77924 1.14844 5.69434L5.7168 5.14062C5.71885 5.14026 5.72074 5.13859 5.72168 5.13672L7.65918 0.962891Z" fill="url(#paint0_linear_3170_41)" stroke="#D15214" stroke-width="0.552786"/>
<defs>
<linearGradient id="paint0_linear_3170_41" x1="1.65836" y1="-0.291778" x2="15.478" y2="15.739" gradientUnits="userSpaceOnUse">
<stop stop-color="#E87035"/>
<stop offset="0.48" stop-color="#E87035"/>
<stop offset="0.49" stop-color="#E87035"/>
<stop offset="0.5" stop-color="#E15E1D"/>
<stop offset="1" stop-color="#E15E1D"/>
</linearGradient>
</defs>
</svg>
