<svg width="20" height="20" viewBox="0 0 20 20" fill="none" xmlns="http://www.w3.org/2000/svg">
<path d="M1.25 14V16.25C1.25 17.6307 2.36929 18.75 3.75 18.75H6V20H3.75C1.67893 20 0 18.3211 0 16.25V14H1.25Z" fill="#C49764"/>
<path d="M20 16.25C20 18.3211 18.3211 20 16.25 20H14V18.75H16.25C17.6307 18.75 18.75 17.6307 18.75 16.25V14H20V16.25Z" fill="#C49764"/>
<path d="M16.25 0C18.3211 0 20 1.67893 20 3.75V6H18.75V3.75C18.75 2.36929 17.6307 1.25 16.25 1.25H14V0H16.25Z" fill="#C49764"/>
<path d="M6 1.25H3.75C2.36929 1.25 1.25 2.36929 1.25 3.75V6H0V3.75C0 1.67893 1.67893 0 3.75 0H6V1.25Z" fill="#C49764"/>
<circle cx="10" cy="10" r="5" fill="#FDC43F"/>
</svg>
