<svg width="40" height="40" viewBox="0 0 40 40" fill="none" xmlns="http://www.w3.org/2000/svg">
<rect x="0.5" y="0.5" width="39" height="39" rx="3.5" fill="white"/>
<rect x="0.5" y="0.5" width="39" height="39" rx="3.5" stroke="black"/>
<rect x="3" y="3" width="34" height="34" rx="2" fill="#5C95FF"/>
<path d="M16 26.3636V14H20.407C21.3688 14 22.1657 14.1751 22.7976 14.5252C23.4295 14.8754 23.9023 15.3543 24.2163 15.962C24.5302 16.5657 24.6871 17.2459 24.6871 18.0025C24.6871 18.7631 24.5282 19.4473 24.2102 20.055C23.8963 20.6587 23.4214 21.1377 22.7855 21.4918C22.1536 21.842 21.3588 22.017 20.4009 22.017H17.3704V20.4354H20.2319C20.8396 20.4354 21.3326 20.3307 21.7109 20.1214C22.0893 19.9081 22.367 19.6184 22.544 19.2521C22.7211 18.8859 22.8097 18.4693 22.8097 18.0025C22.8097 17.5356 22.7211 17.1211 22.544 16.7589C22.367 16.3967 22.0872 16.1129 21.7049 15.9077C21.3266 15.7024 20.8275 15.5998 20.2077 15.5998H17.8654V26.3636H16Z" fill="white"/>
</svg>
