<svg width="24" height="24" viewBox="0 0 24 24" fill="none" xmlns="http://www.w3.org/2000/svg">
<path d="M4 0.5H20C21.933 0.5 23.5 2.067 23.5 4V20C23.5 21.933 21.933 23.5 20 23.5H4C2.067 23.5 0.5 21.933 0.5 20V4L0.504883 3.82031C0.595411 2.03035 2.03035 0.595411 3.82031 0.504883L4 0.5Z" fill="white"/>
<path d="M4 0.5H20C21.933 0.5 23.5 2.067 23.5 4V20C23.5 21.933 21.933 23.5 20 23.5H4C2.067 23.5 0.5 21.933 0.5 20V4L0.504883 3.82031C0.595411 2.03035 2.03035 0.595411 3.82031 0.504883L4 0.5Z" stroke="black"/>
<rect x="3" y="3" width="18" height="18" rx="2" fill="#5C95FF"/>
<path d="M9 16.1583V7H12.2644C12.9769 7 13.5672 7.12968 14.0352 7.38905C14.5033 7.64841 14.8536 8.00317 15.0861 8.45334C15.3187 8.90052 15.4349 9.40434 15.4349 9.9648C15.4349 10.5283 15.3172 11.0351 15.0816 11.4852C14.8491 11.9324 14.4973 12.2872 14.0263 12.5495C13.5583 12.8089 12.9695 12.9386 12.2599 12.9386H10.0151V11.7669H12.1347C12.5849 11.7669 12.9501 11.6894 13.2303 11.5344C13.5106 11.3764 13.7163 11.1618 13.8474 10.8905C13.9786 10.6192 14.0442 10.3106 14.0442 9.9648C14.0442 9.61899 13.9786 9.31192 13.8474 9.04361C13.7163 8.77531 13.5091 8.56513 13.2259 8.41309C12.9456 8.26105 12.576 8.18503 12.1168 8.18503H10.3818V16.1583H9Z" fill="white"/>
</svg>
