<svg width="18" height="18" viewBox="0 0 18 18" fill="none" xmlns="http://www.w3.org/2000/svg">
<g clip-path="url(#clip0_3528_712)">
<path d="M8.97451 0C4.06925 0 0.076474 3.99225 0.0743931 8.89908C0.0738728 10.4676 0.483815 11.9986 1.2626 13.3481L0 17.9605L4.71798 16.7228C6.01803 17.4319 7.48145 17.8054 8.97087 17.806H8.97451C13.8792 17.806 17.872 13.8132 17.8741 8.90636C17.8751 6.52838 16.9502 4.29243 15.2698 2.61052C13.5895 0.928093 11.3551 0.00104046 8.97451 0ZM8.97451 16.303H8.97139C7.64428 16.303 6.34214 15.9456 5.20647 15.2719L4.93647 15.1117L2.13711 15.8462L2.88416 13.1166L2.70832 12.8367C1.96803 11.6589 1.57682 10.2975 1.57734 8.90012C1.5789 4.8215 4.89746 1.50347 8.97763 1.50347C10.9535 1.50399 12.8107 2.27445 14.207 3.67283C15.6038 5.07069 16.3722 6.92948 16.3717 8.90584C16.3701 12.9845 13.0516 16.303 8.97451 16.303ZM13.0318 10.7631C12.8097 10.6517 11.7161 10.1138 11.5122 10.0394C11.3083 9.96503 11.16 9.92809 11.0117 10.1508C10.8635 10.3734 10.4374 10.8744 10.3079 11.0227C10.1783 11.1714 10.0483 11.1897 9.82613 11.0783C9.60399 10.967 8.88711 10.7318 8.03809 9.97439C7.37688 9.38497 6.93052 8.65665 6.80098 8.43399C6.67145 8.21133 6.78694 8.09116 6.89879 7.98035C6.99867 7.88098 7.12093 7.72075 7.23225 7.59069C7.34358 7.46064 7.38052 7.36804 7.45439 7.21925C7.52827 7.07098 7.49133 6.94093 7.43566 6.8296C7.38 6.71827 6.9352 5.6237 6.75 5.17838C6.56948 4.74503 6.38636 4.80329 6.24954 4.79653C6.12 4.78977 5.97173 4.78873 5.82347 4.78873C5.6752 4.78873 5.43434 4.84439 5.2304 5.06705C5.02647 5.28971 4.45214 5.82763 4.45214 6.9222C4.45214 8.01676 5.24913 9.07439 5.35994 9.22266C5.47127 9.37092 6.92792 11.6173 9.15867 12.5802C9.68931 12.8091 10.1034 12.946 10.4265 13.0484C10.9592 13.2175 11.444 13.1936 11.8269 13.1364C12.254 13.0724 13.1426 12.5984 13.3278 12.0787C13.513 11.5595 13.513 11.1142 13.4573 11.0211C13.4017 10.9285 13.2534 10.8728 13.0313 10.7615L13.0318 10.7631Z" fill="#383838"/>
</g>
<defs>
<clipPath id="clip0_3528_712">
<rect width="17.896" height="18" fill="white"/>
</clipPath>
</defs>
</svg>
