<svg width="324" height="189" viewBox="0 0 324 189" fill="none" xmlns="http://www.w3.org/2000/svg">
<g clip-path="url(#clip0_3528_532)">
<path fill-rule="evenodd" clip-rule="evenodd" d="M186.626 38.8118L186.638 38.8415C187.046 39.72 187.796 40.5869 188.153 40.8206L188.198 40.8517L188.246 40.8678C189.016 41.1346 189.54 41.0397 190.049 40.5409L190.066 40.5261L190.078 40.5105C190.353 40.1858 190.473 39.3883 190.653 37.7697C190.657 37.7812 190.698 37.4614 190.698 37.4614C190.767 36.9656 190.839 36.4586 190.942 35.9454C191.292 34.2526 191.784 32.5527 192.053 31.637C192.225 31.0392 192.253 30.9351 192.258 30.8453L192.264 30.8066L192.258 30.7691C192.103 29.3928 190.594 28.9945 189.236 29.0826L189.196 29.0852L189.156 29.096C188.523 29.2656 188.18 29.588 187.901 30.2575C187.087 31.8254 186.532 33.6267 186.206 35.7698L186.194 35.8201L186.2 35.8702C186.212 36.0397 186.218 36.2088 186.228 36.3832C186.248 36.9788 186.27 37.6519 186.615 38.7879L186.626 38.8118ZM304.145 37.6552C303.739 36.5912 302.666 35.7508 301.385 36.2093L286.32 42.7421C276.688 46.9507 267.59 50.9258 257.742 54.896L257.655 54.9316C256.688 55.3184 255.686 55.7246 254.698 56.0944C254.065 56.3402 253.511 56.3199 253.043 56.0317C252.359 55.6038 251.87 54.5763 251.721 53.2702C252.427 52.1159 253.416 50.7437 254.466 49.2915L256.003 47.1471C260.544 40.687 264.487 33.393 259.266 28.2606C258.572 27.659 257.771 27.193 256.906 26.8866C254.364 26.1703 252.235 26.856 250.573 28.9249C246.177 34.414 246.202 48.5322 247.188 52.4496L245.054 55.034C240.553 60.4998 237.299 64.4503 236.339 63.6702C235.682 63.118 235.052 60.1527 234.172 56.0504C233.69 53.7842 233.087 50.966 232.314 47.7346L232.301 47.6847L232.123 47.1973C231.842 46.4166 231.725 46.1514 230.948 45.2381L230.932 45.222L230.919 45.2068C229.954 44.2884 228.881 43.907 227.741 44.0705C226.094 44.308 224.414 45.7109 223.141 47.9228C221.132 51.5128 219.281 56.8035 217.647 61.4764C215.883 66.5236 214.213 71.2863 212.746 72.838C212.303 73.3106 211.94 73.4757 211.827 73.4506C211.805 73.4442 211.74 73.3812 211.684 73.1719C211.506 71.3862 211.532 69.0681 211.556 66.6108C211.618 61.1183 211.683 55.4378 209.634 53.3672C209.383 53.1042 209.08 52.8961 208.744 52.7558C208.409 52.6155 208.048 52.5461 207.685 52.552C204.452 52.595 201.638 58.082 197.869 67.5537L196.799 70.2728C194.443 76.2729 192.226 81.9438 190.105 84.4176C189.728 84.9445 189.421 85.0865 189.312 85.056C189.243 85.0374 189.156 84.8961 189.144 84.6958C189.04 83.2439 189.233 80.412 189.448 77.1256C190.003 68.8238 190.311 62.3312 188.87 60.5649C188.079 59.5627 187.698 59.3067 186.513 59.4266C184.543 59.5716 181.819 63.4994 177.099 72.9792L173.678 80.0364C170.719 86.2104 167.92 92.0496 166.001 94.5576C165.883 94.6913 165.742 94.8036 165.585 94.8895C165.554 94.7924 165.538 94.6913 165.537 94.5894C165.848 90.5633 165.954 86.9769 166.06 83.5058C166.159 80.2155 166.262 76.8109 166.534 73.0155C169.341 68.8574 171.938 64.5613 174.315 60.1433C180.345 48.9751 182.418 41.1741 180.465 36.9541C179.662 35.2183 178.178 34.1118 176.07 33.6641C172.905 32.9071 170.209 34.7902 168.061 39.257C164.356 46.9809 163.046 60.6585 162.346 68.0052L162.064 70.8178C159.891 74.0609 156.766 78.0527 154.004 81.5814C150.529 86.0211 147.782 89.5268 147.388 90.8423C147.11 91.6044 147.712 92.7414 148.437 93.2428C149.02 93.6483 149.667 93.6375 150.163 93.2104C151.405 92.1469 153.86 88.9232 156.454 85.5116C158.413 82.9455 160.419 80.3049 161.873 78.6579C161.844 79.7625 161.715 81.2477 161.57 82.9062C160.973 89.8014 160.152 99.2507 164.728 100.399L164.755 100.409L164.78 100.41C167.687 100.773 171.927 94.5997 179.416 79.1183L181.644 74.4818C183.044 71.5446 184.15 69.2275 184.755 68.2465C184.81 68.1679 184.845 68.1481 184.882 68.1402C184.888 68.1841 184.887 68.2286 184.881 68.2723L184.773 70.2398C184.262 79.1676 183.909 88.0369 185.638 89.8187C186.667 90.9052 187.807 91.3385 189.027 91.1124C192.317 90.5006 196.042 85.0452 200.42 74.4265C201.384 72.1103 202.291 69.7931 203.088 67.7521C204.288 64.6794 205.327 62.022 206.07 60.6438L206.116 60.5452C206.135 60.5688 206.15 60.5952 206.161 60.6235C206.552 61.5456 206.543 64.0422 206.53 66.6879C206.508 71.6821 206.48 77.3486 208.682 79.2136C209.305 79.7423 210.068 79.935 210.95 79.783C212.282 79.5391 213.506 78.9663 214.684 78.0312C215.442 77.4309 215.63 77.1583 215.852 76.8417L215.978 76.668C217.83 74.258 221.112 66.1163 223.753 59.5749C225.269 55.8186 226.574 52.5753 227.253 51.2884C227.624 50.6603 227.817 50.5775 227.855 50.5653C228.347 50.765 228.87 53.6766 229.252 55.8089C229.969 59.8045 230.865 64.7811 232.978 67.1823C234.048 68.299 235.234 68.829 236.51 68.7649C239.905 68.59 243.309 64.2186 246.315 60.3614C247.098 59.3552 247.842 58.4046 248.553 57.5641C249.571 59.8079 251.439 61.1389 253.762 61.2407C254.4 61.2981 255.951 60.8395 259.121 59.665C271.211 55.1268 300.272 41.9916 303.42 40.1295L303.368 40.1559C304.23 39.7993 304.562 38.7452 304.145 37.6552ZM170.475 45.6337C171.437 42.5567 172.415 40.3005 173.31 39.0895C173.669 38.5281 174.474 38.5345 174.652 38.5692C174.903 38.6037 175.142 38.7 175.347 38.8495C175.551 38.999 175.716 39.197 175.825 39.4258C176.856 41.4462 175.422 46.8823 171.997 53.9695C170.097 57.9482 168.164 61.1536 167.28 62.2752C167.187 60.193 168.393 52.3587 170.475 45.6337ZM252.624 34.2999C253.398 32.5326 254.385 31.7477 255.632 31.9093C255.868 31.933 256.094 32.0127 256.293 32.1418C257.309 33.1948 256.357 36.9996 253.912 41.6387C252.819 43.7488 251.756 45.3545 251.025 46.2234L251.022 46.1646C251.085 43.3923 251.22 37.6291 252.624 34.2999ZM136.904 86.8298C136.182 86.8676 135.477 87.0594 134.835 87.3925C133.973 87.7964 133.669 88.1433 132.919 89.0954C132.248 89.9672 131.65 90.8934 131.132 91.8644C128.516 96.609 126.074 101.764 123.49 107.22C122.272 109.807 121.036 112.384 119.782 114.953C120.036 112.266 120.122 110.022 120.06 107.897L120.056 107.869L120.054 107.845C119.957 107.175 119.451 106.699 118.736 106.599C117.942 106.491 116.921 106.861 116.511 107.777L116.497 107.81L116.488 107.845C115.718 110.826 113.563 115.426 112.438 116.032C110.071 117.148 109.421 116.165 109.206 115.845C107.195 112.815 110.972 101.907 114.455 98.7716C115.896 97.474 116.623 98.0549 116.849 98.2392C117.135 98.6091 117.172 101.046 117.188 102.221C117.206 103.132 117.213 103.846 117.275 104.179C117.409 105.117 118.176 105.706 119.185 105.653C119.836 105.609 120.445 105.322 120.893 104.848C121.341 104.374 121.594 103.748 121.602 103.096C122.11 98.1776 120.405 94.7678 118.478 93.9444C115.233 92.3898 111.578 93.8115 108.45 97.8414C103.477 104.255 101.298 115.469 105.829 120.881C107.64 122.913 111.167 122.542 114.759 120.007L114.199 124.759L109.072 135.131C109.072 135.131 106.504 140.341 106.505 140.344L103.004 147.532L102.993 147.56L102.983 147.583L102.207 149.765C100.3 155.054 98.4996 160.051 101.477 164.357C103.024 166.772 105.799 167.508 109.314 166.432C111.724 165.566 112.304 164.818 113.286 163.347C116.824 158.232 117.116 148.282 117.35 140.293C117.441 137.266 117.526 134.406 117.784 132.307L117.945 130.416C118.044 129.252 118.137 128.147 118.27 126.888C120.252 123.174 122.123 119.37 123.929 115.686C125.644 112.159 127.41 108.658 129.227 105.183C129.58 107.467 129.983 110.053 131.958 111.886C134.476 114.247 137.831 113.58 140.035 111.872C144.808 108.202 146.053 98.4397 143.939 92.491C142.618 88.7518 140.121 86.7437 136.904 86.8298ZM111.786 149.717C111.544 151.992 111.317 154.143 110.781 156.408C110.427 157.997 109.922 159.548 109.274 161.041C108.622 161.975 107.304 162.365 106.447 162.192C106.1 162.124 105.662 161.931 105.553 161.394C104.243 156.504 106.749 150.321 108.747 146.096C109.561 144.405 110.407 142.73 111.286 141.072C111.766 140.155 112.227 139.272 112.65 138.428C112.541 141.232 112.362 144.033 112.113 146.828C111.986 147.811 111.884 148.779 111.786 149.717ZM139.218 106.307C138.976 106.682 138.695 107.031 138.379 107.346C137.445 108.288 135.767 108.678 134.639 108.213L134.609 108.2L134.574 108.193C134.057 108.066 133.716 107.466 133.522 106.987C132.208 103.767 133.075 96.3199 135.146 93.0114C135.743 92.0551 136.419 91.4851 137.096 91.3673C137.657 91.2645 138.262 91.4603 138.892 91.9523C140.929 93.5322 141.856 102.155 139.218 106.307ZM96.7824 107.411C97.1503 107.265 97.4741 107.269 97.7686 107.424C98.0925 107.574 98.3905 107.904 98.7117 108.466L98.7277 108.495L98.7483 108.518C99.0949 108.96 99.4893 109.373 100.029 109.424C100.386 109.46 100.746 109.32 101.104 109.01C101.823 108.363 101.931 106.9 101.377 105.285C100.791 103.573 99.4163 101.682 97.3203 101.531L97.2759 101.527L97.2336 101.53C96.9772 101.562 96.7238 101.614 96.4756 101.686C92.9828 102.836 90.3004 107.195 87.7101 111.414C86.9527 112.646 86.1708 113.909 85.3867 115.072L84.8456 114.441L84.8269 114.417L84.8024 114.395C84.1036 113.782 83.4752 113.654 82.7458 113.647C75.5998 113.585 58.7292 127.365 45.1682 138.438C36.7707 145.289 29.5241 151.211 26.5725 152.272C26.0092 152.486 25.8308 152.419 25.7782 152.384C25.7251 152.346 25.5639 152.159 25.6161 151.326C25.5769 145.05 38.1989 129.99 43.6286 123.808C45.746 121.407 50.1483 117.997 54.4052 114.704C59.9888 110.378 63.4511 107.633 63.7397 106.278C63.9813 105.676 63.692 104.727 63.0542 104.05C62.365 103.319 61.4599 103.094 60.5285 103.447C57.025 105.155 53.4987 107.845 50.0922 110.445L47.5152 112.397C45.4081 113.686 44.1749 114.3 42.0511 114.384C41.8615 114.354 41.6705 114.335 41.4788 114.327C40.8251 114.297 40.2026 114.26 39.785 113.499C38.789 105.516 59.3758 87.836 65.7337 82.5867C69.1037 79.7123 74.7066 76.2026 77.0896 75.0537C77.2903 74.9626 77.4701 74.8312 77.6179 74.6677C77.7658 74.5042 77.8785 74.3121 77.9491 74.1032C78.153 73.4909 78.0084 72.7209 77.514 71.7504L77.4951 71.7184L77.4714 71.6836C76.6443 70.6067 75.3239 71.0263 74.4519 71.3011C74.3455 71.3338 74.2474 71.3663 74.1328 71.399C63.2441 75.1212 34.0849 101.57 34.5668 114.002C34.6494 115.684 35.1692 116.956 36.1113 117.772C37.5151 118.991 39.6589 119.035 41.5112 118.905C33.3912 127.284 24.3754 136.768 21.0786 148.447L21.0733 148.473L20.9531 149.168C20.7918 150.1 20.6538 150.904 20.6207 151.648C20.5148 153.907 20.9118 155.634 21.8037 156.784C23.2863 158.642 25.5199 158.332 28.4456 157.283C29.9989 156.597 31.4875 155.616 32.3763 155.028L32.6206 154.865C34.4013 153.785 38.5951 150.126 43.9038 145.496C56.656 134.366 78.0008 115.74 82.772 119.015C83.7036 119.669 82.7688 122.187 81.8691 124.622C80.4061 128.568 78.5872 133.48 82.4942 135.31C83.054 135.573 83.5446 135.555 84.3618 135.429L84.4031 135.422L84.4423 135.407C85.4003 135.062 85.657 134.777 86.1017 133.905C87.2494 131.667 87.7018 128.146 87.3812 123.981C89.3166 118.729 93.7132 108.608 96.7824 107.411Z" fill="#FBA9F3"/>
<path d="M37.7175 109.593L37.241 109.441V109.441L37.7175 109.593ZM37.7178 116.093L38.0825 115.751V115.751L37.7178 116.093ZM43.2169 116.593L43.2876 117.088V117.088L43.2169 116.593ZM60.2139 106.594L59.9365 106.178V106.178L60.2139 106.594ZM34.7188 129.593L34.3196 129.292V129.292L34.7188 129.593ZM23.7213 148.592L23.2705 148.376L23.2655 148.386L23.2609 148.397L23.7213 148.592ZM23.7215 155.092L23.9311 154.638V154.638L23.7215 155.092ZM26.7211 155.092L26.8792 155.566H26.8792L26.7211 155.092ZM74.4877 74.011C74.7175 73.8578 74.7796 73.5474 74.6264 73.3176C74.4732 73.0878 74.1628 73.0257 73.933 73.1789L74.2104 73.5949L74.4877 74.011ZM52.7144 90.5938L52.3562 90.245V90.245L52.7144 90.5938ZM75.2121 118.594L74.9641 118.16V118.16L75.2121 118.594ZM84.2107 117.095L83.9534 117.524V117.524L84.2107 117.095ZM85.2107 122.095L85.6958 122.216V122.216L85.2107 122.095ZM83.2115 132.595L83.7018 132.693V132.693L83.2115 132.595ZM99.2606 106.819C99.3841 107.066 99.6844 107.166 99.9314 107.043C100.178 106.919 100.279 106.619 100.155 106.372L99.7079 106.596L99.2606 106.819ZM53.9368 134.365L53.6346 133.967L53.6193 133.978L53.605 133.991L53.9368 134.365ZM89.2098 113.595L89.6641 113.804V113.804L89.2098 113.595ZM86.2105 120.595L85.7351 120.44L85.7317 120.451L86.2105 120.595ZM117.224 95.5911L117.06 96.0634L117.224 95.5911ZM107.224 106.091L107.694 106.263V106.263L107.224 106.091ZM107.224 118.091L107.615 117.779V117.779L107.224 118.091ZM110.224 119.591L110.216 120.091V120.091L110.224 119.591ZM116.224 125.591L116.675 125.808L116.71 125.735L116.72 125.655L116.224 125.591ZM109.724 139.091L110.155 139.346L110.166 139.327L110.175 139.308L109.724 139.091ZM102.224 156.591L102.719 156.667V156.667L102.224 156.591ZM104.724 164.091L104.47 164.522V164.522L104.724 164.091ZM109.224 164.091L109.069 163.616V163.616L109.224 164.091ZM112.224 160.591L112.671 160.815V160.815L112.224 160.591ZM114.224 153.091L113.727 153.042V153.042L114.224 153.091ZM115.224 128.591L114.776 128.371L114.724 128.475V128.591L115.224 128.591ZM130.724 97.0913L130.285 96.8519L130.28 96.8611L130.276 96.8706L130.724 97.0913ZM133.724 91.5913L133.298 91.3307L133.291 91.3412L133.285 91.3519L133.724 91.5913ZM137.224 89.0912L137.233 88.5912V88.5912L137.224 89.0912ZM141.724 92.5913L141.284 92.8282V92.8282L141.724 92.5913ZM143.224 98.5911L143.724 98.5857V98.5857L143.224 98.5911ZM141.724 106.091L142.179 106.3V106.3L141.724 106.091ZM138.224 110.091L138.502 110.507V110.507L138.224 110.091ZM134.724 111.091L134.582 111.571V111.571L134.724 111.091ZM132.224 109.091L131.79 109.339V109.339L132.224 109.091ZM111.224 98.5913L111.624 98.8913V98.8913L111.224 98.5913ZM149.322 90.794C149.158 91.0162 149.205 91.3292 149.427 91.4932C149.649 91.6572 149.962 91.61 150.126 91.3878L149.724 91.0909L149.322 90.794ZM165.224 70.0909L165.626 70.3878L165.631 70.3811L165.636 70.3742L165.224 70.0909ZM178.724 39.5912L179.212 39.4827V39.4827L178.724 39.5912ZM175.224 35.5912L175.172 36.0884V36.0884L175.224 35.5912ZM171.724 37.0912L172.14 37.3685V37.3685L171.724 37.0912ZM168.224 45.5911L167.743 45.4538L168.224 45.5911ZM165.724 56.0911L165.234 55.9901L165.228 56.0192L165.226 56.0487L165.724 56.0911ZM163.724 79.5911L163.226 79.5487L163.225 79.5586L163.224 79.5684L163.724 79.5911ZM165.224 97.5912L165.205 98.0908V98.0908L165.224 97.5912ZM169.224 93.5912L168.802 93.3227V93.3227L169.224 93.5912ZM181.224 69.5911L181.678 69.7999L181.686 69.7834L181.692 69.7664L181.224 69.5911ZM184.224 64.5911L183.895 64.2145V64.2145L184.224 64.5911ZM186.724 84.5911L187.223 84.5618V84.5618L186.724 84.5911ZM188.224 87.5911L188.052 88.0608V88.0608L188.224 87.5911ZM192.224 85.5911L192.64 85.8685V85.8685L192.224 85.5911ZM203.724 60.5911L203.292 60.3392V60.3392L203.724 60.5911ZM205.724 57.0911L205.968 57.5274L205.968 57.5274L205.724 57.0911ZM212.724 76.0911L212.891 76.5626V76.5626L212.724 76.0911ZM215.224 73.0911L214.767 72.8881L214.761 72.9016L214.756 72.9154L215.224 73.0911ZM226.724 47.5911L226.927 48.0481V48.0481L226.724 47.5911ZM236.224 66.0911L236.326 65.6017V65.6017L236.224 66.0911ZM238.724 65.5911L238.395 65.2149V65.2149L238.724 65.5911ZM247.724 55.0911L247.331 54.7822L247.324 54.7912L247.317 54.8005L247.724 55.0911ZM256.224 43.0912L255.795 42.8339V42.8339L256.224 43.0912ZM257.724 30.0911L257.451 30.5102L257.452 30.5103L257.724 30.0911ZM257.664 30.052L257.936 29.6328V29.6328L257.664 30.052ZM254.724 29.0912L254.812 29.5833V29.5833L254.724 29.0912ZM251.724 31.0911L251.295 30.8338V30.8338L251.724 31.0911ZM249.224 38.5912L249.712 38.6996V38.6996L249.224 38.5912ZM249.224 50.0911L249.721 50.0359V50.0359L249.224 50.0911ZM250.724 57.0911L251.088 56.7489V56.7489L250.724 57.0911ZM255.724 58.5911L255.913 59.0539V59.0539L255.724 58.5911ZM301.926 39.0483C302.179 38.9365 302.293 38.6412 302.181 38.3887C302.069 38.1362 301.774 38.0222 301.521 38.134L301.724 38.5912L301.926 39.0483ZM208.724 66.5911L208.224 66.5738V66.5738L208.724 66.5911ZM37.7175 109.593L37.241 109.441C36.773 110.913 36.3472 112.179 36.2605 113.288C36.1697 114.45 36.446 115.467 37.353 116.435L37.7178 116.093L38.0825 115.751C37.3871 115.009 37.1863 114.277 37.2575 113.366C37.3329 112.402 37.7082 111.272 38.194 109.745L37.7175 109.593ZM37.7178 116.093L37.353 116.435C37.7127 116.819 38.0544 117.109 38.4346 117.301C38.8235 117.497 39.2195 117.572 39.6618 117.575C40.0911 117.579 40.5783 117.514 41.1504 117.424C41.735 117.332 42.4164 117.213 43.2876 117.088L43.2169 116.593L43.1462 116.098C42.2677 116.224 41.5571 116.348 40.9953 116.436C40.421 116.526 40.0075 116.578 39.6696 116.575C39.3448 116.573 39.1072 116.52 38.8842 116.408C38.6524 116.291 38.4037 116.094 38.0825 115.751L37.7178 116.093ZM43.2169 116.593L43.2876 117.088C44.2585 116.949 45.6407 116.346 47.1608 115.543C48.7012 114.73 50.4481 113.675 52.1714 112.578C55.6123 110.388 59.0089 107.998 60.4913 107.01L60.2139 106.594L59.9365 106.178C58.4194 107.189 55.0673 109.549 51.6344 111.734C49.9208 112.825 48.1996 113.864 46.6937 114.659C45.1674 115.465 43.9251 115.987 43.1462 116.098L43.2169 116.593ZM60.2139 106.594L60.4913 107.01C60.5844 106.948 60.6518 106.904 60.6963 106.875C60.7191 106.861 60.7319 106.853 60.7374 106.85C60.7407 106.848 60.7368 106.85 60.7285 106.854C60.7245 106.856 60.7146 106.861 60.7009 106.867C60.6935 106.87 60.6565 106.886 60.6055 106.896C60.5755 106.901 60.4941 106.905 60.4434 106.9C60.3572 106.881 60.1687 106.769 60.0856 106.666C60.0347 106.554 60.0148 106.355 60.0285 106.279C60.0417 106.237 60.0709 106.171 60.0842 106.147C60.1087 106.107 60.1333 106.08 60.1388 106.074C60.1481 106.064 60.1555 106.057 60.1586 106.054C60.1676 106.045 60.1696 106.044 60.1531 106.058C60.1259 106.08 60.0779 106.117 60.0063 106.172C59.7205 106.392 59.1432 106.823 58.3292 107.44C56.7081 108.667 54.1795 110.605 51.3037 112.941C45.5646 117.602 38.3972 123.885 34.3196 129.292L34.7188 129.593L35.118 129.894C39.1145 124.594 46.1944 118.378 51.9342 113.717C54.7978 111.391 57.3166 109.461 58.933 108.237C59.7377 107.627 60.3268 107.187 60.6152 106.966C60.6871 106.91 60.7457 106.865 60.7858 106.832C60.803 106.818 60.8288 106.796 60.8516 106.775C60.8581 106.768 60.8684 106.758 60.8799 106.745C60.8876 106.737 60.9137 106.708 60.9391 106.666C60.9529 106.642 60.9824 106.576 60.9958 106.533C61.0096 106.456 60.9897 106.257 60.9385 106.144C60.8553 106.042 60.6665 105.93 60.5797 105.91C60.5286 105.905 60.4464 105.909 60.4156 105.914C60.363 105.924 60.3237 105.941 60.3133 105.945C60.2967 105.952 60.2832 105.959 60.2749 105.963C60.2582 105.972 60.2431 105.98 60.2326 105.986C60.2105 105.999 60.1851 106.015 60.1588 106.032C60.1052 106.066 60.0308 106.115 59.9365 106.178L60.2139 106.594ZM34.7188 129.593L34.3196 129.292C31.7147 132.746 28.9507 137.523 26.8444 141.421C25.7895 143.374 24.8965 145.111 24.2672 146.361C23.9524 146.986 23.7036 147.489 23.5332 147.836C23.4481 148.01 23.3825 148.144 23.3382 148.236C23.3161 148.281 23.2992 148.316 23.2879 148.34C23.2822 148.351 23.2779 148.36 23.275 148.366C23.2735 148.369 23.2724 148.372 23.2717 148.373C23.2713 148.374 23.271 148.375 23.2708 148.375C23.2707 148.375 23.2707 148.375 23.2706 148.375C23.2706 148.376 23.2705 148.376 23.7213 148.592C24.172 148.808 24.172 148.808 24.1721 148.808C24.1721 148.808 24.1721 148.808 24.1722 148.808C24.1724 148.808 24.1726 148.807 24.173 148.806C24.1736 148.805 24.1747 148.803 24.176 148.8C24.1788 148.794 24.183 148.786 24.1885 148.774C24.1995 148.751 24.2161 148.717 24.2379 148.672C24.2816 148.582 24.3465 148.449 24.431 148.277C24.5999 147.932 24.8473 147.432 25.1603 146.811C25.7864 145.568 26.6749 143.839 27.7242 141.897C29.8261 138.006 32.5609 133.284 35.118 129.894L34.7188 129.593ZM23.7213 148.592C23.2609 148.397 23.2609 148.397 23.2608 148.397C23.2608 148.397 23.2607 148.397 23.2606 148.397C23.2605 148.398 23.2604 148.398 23.2602 148.399C23.2598 148.4 23.2593 148.401 23.2586 148.402C23.2573 148.406 23.2554 148.41 23.253 148.416C23.2483 148.427 23.2415 148.444 23.2329 148.465C23.2156 148.507 23.1909 148.569 23.1606 148.647C23.1001 148.803 23.0167 149.026 22.9242 149.296C22.7398 149.835 22.5162 150.572 22.3663 151.348C22.2179 152.117 22.1339 152.964 22.2559 153.708C22.379 154.46 22.7294 155.185 23.512 155.546L23.7215 155.092L23.9311 154.638C23.5614 154.467 23.3357 154.114 23.2427 153.547C23.1486 152.973 23.2086 152.261 23.3482 151.538C23.4863 150.822 23.6947 150.133 23.8703 149.62C23.9578 149.364 24.0364 149.154 24.0929 149.009C24.1211 148.936 24.1437 148.88 24.1591 148.842C24.1667 148.823 24.1726 148.809 24.1764 148.8C24.1783 148.795 24.1797 148.792 24.1806 148.789C24.1811 148.788 24.1814 148.788 24.1815 148.787C24.1816 148.787 24.1817 148.787 24.1817 148.787C24.1817 148.787 24.1817 148.787 24.1817 148.787C24.1817 148.787 24.1816 148.787 23.7213 148.592ZM23.7215 155.092L23.512 155.546C24.0629 155.8 24.5173 155.962 25.0564 155.964C25.5759 155.965 26.1293 155.816 26.8792 155.566L26.7211 155.092L26.563 154.618C25.813 154.868 25.3985 154.964 25.0591 154.964C24.7392 154.963 24.4438 154.875 23.9311 154.638L23.7215 155.092ZM74.2104 73.5949C73.933 73.1789 73.933 73.1789 73.9328 73.179C73.9327 73.1791 73.9325 73.1792 73.9323 73.1794C73.9318 73.1797 73.9311 73.1801 73.9302 73.1807C73.9285 73.1819 73.9258 73.1837 73.9224 73.186C73.9154 73.1906 73.9051 73.1975 73.8915 73.2066C73.8644 73.2248 73.8241 73.2518 73.7713 73.2874C73.6657 73.3584 73.5101 73.4634 73.3096 73.5997C72.9086 73.8722 72.328 74.2697 71.6082 74.7704C70.1688 75.7717 68.1724 77.1862 65.9436 78.8391C61.4923 82.1403 56.0911 86.4097 52.3562 90.245L52.7144 90.5938L53.0726 90.9427C56.7484 87.1681 62.0953 82.9381 66.5393 79.6423C68.7581 77.9967 70.7461 76.5883 72.1793 75.5913C72.8958 75.0929 73.4734 74.6974 73.8717 74.4267C74.0709 74.2914 74.2251 74.1873 74.3295 74.1171C74.3817 74.082 74.4214 74.0553 74.4479 74.0375C74.4612 74.0286 74.4712 74.0219 74.4779 74.0175C74.4812 74.0153 74.4837 74.0136 74.4853 74.0125C74.4862 74.012 74.4868 74.0116 74.4872 74.0113C74.4874 74.0112 74.4875 74.0111 74.4876 74.011C74.4877 74.011 74.4877 74.011 74.2104 73.5949ZM52.7144 90.5938L52.3562 90.245C48.9244 93.769 45.4024 97.7815 42.6168 101.292C41.2241 103.047 40.0117 104.681 39.0853 106.069C38.1683 107.443 37.5028 108.618 37.241 109.441L37.7175 109.593L38.194 109.745C38.409 109.068 39.0016 107.996 39.9171 106.624C40.8232 105.266 42.0178 103.655 43.4001 101.913C46.1643 98.4301 49.6639 94.443 53.0726 90.9427L52.7144 90.5938ZM75.2121 118.594L75.4602 119.029C78.973 117.021 81.7245 116.186 83.9534 117.524L84.2107 117.095L84.468 116.666C81.6975 115.004 78.45 116.168 74.9641 118.16L75.2121 118.594ZM84.2107 117.095L83.9534 117.524C84.537 117.874 84.8773 118.201 85.0731 118.501C85.2636 118.793 85.3355 119.086 85.3355 119.407C85.3355 119.742 85.2577 120.11 85.1355 120.546C85.0208 120.954 84.8514 121.471 84.7257 121.974L85.2107 122.095L85.6958 122.216C85.82 121.719 85.963 121.298 86.0983 120.816C86.226 120.361 86.3356 119.885 86.3355 119.407C86.3355 118.917 86.22 118.428 85.9104 117.954C85.6064 117.489 85.1342 117.066 84.468 116.666L84.2107 117.095ZM85.2107 122.095L84.7257 121.974C84.253 123.865 83.3381 129.292 82.8205 131.989L83.3115 132.083L83.8025 132.177C84.3321 129.419 85.2316 124.073 85.6958 122.216L85.2107 122.095ZM83.3115 132.083L82.8205 131.989C82.7855 132.171 82.7523 132.341 82.7212 132.497L83.2115 132.595L83.7018 132.693C83.7335 132.534 83.7672 132.361 83.8025 132.177L83.3115 132.083ZM97.7081 104.096L97.4844 104.543C97.6545 104.628 97.8557 104.795 98.0724 105.033C98.2842 105.267 98.4876 105.541 98.6669 105.81C98.8453 106.078 98.9948 106.332 99.0997 106.52C99.1521 106.613 99.1929 106.689 99.2205 106.742C99.2342 106.768 99.2446 106.788 99.2514 106.801C99.2548 106.808 99.2573 106.813 99.2588 106.816C99.2596 106.817 99.2601 106.818 99.2604 106.819C99.2606 106.819 99.2607 106.819 99.2607 106.819C99.2607 106.819 99.2607 106.819 99.2607 106.819C99.2607 106.819 99.2607 106.819 99.2607 106.819C99.2607 106.819 99.2606 106.819 99.7079 106.596C100.155 106.372 100.155 106.372 100.155 106.372C100.155 106.372 100.155 106.372 100.155 106.372C100.155 106.372 100.155 106.371 100.155 106.371C100.154 106.371 100.154 106.37 100.154 106.369C100.153 106.368 100.152 106.366 100.151 106.364C100.149 106.36 100.146 106.353 100.141 106.345C100.133 106.329 100.121 106.305 100.105 106.276C100.074 106.217 100.029 106.133 99.9723 106.031C99.8585 105.828 99.6955 105.551 99.499 105.256C99.3033 104.962 99.0692 104.643 98.8123 104.361C98.5603 104.084 98.2615 103.813 97.9317 103.648L97.7081 104.096ZM26.7211 155.092L26.8792 155.566C27.1258 155.484 27.5304 155.268 28.034 154.969C28.5546 154.66 29.2247 154.237 30.0232 153.709C31.6208 152.653 33.7437 151.172 36.2309 149.342C41.2056 145.681 47.6466 140.614 54.2686 134.739L53.9368 134.365L53.605 133.991C47.0088 139.843 40.5919 144.891 35.6382 148.536C33.1613 150.359 31.0524 151.83 29.4718 152.875C28.6811 153.397 28.0255 153.811 27.5239 154.109C27.0053 154.416 26.6913 154.575 26.563 154.618L26.7211 155.092ZM53.9368 134.365L54.2389 134.764C59.3394 130.895 64.2687 127.175 68.1164 124.312C71.983 121.435 74.7178 119.453 75.4602 119.029L75.2121 118.594L74.9641 118.16C74.154 118.623 71.352 120.658 67.5194 123.51C63.668 126.376 58.7358 130.098 53.6346 133.967L53.9368 134.365ZM89.2098 113.595L89.6641 113.804C91.1274 110.621 92.9679 108.17 94.5536 106.583C95.348 105.789 96.0671 105.223 96.6314 104.889C96.9149 104.721 97.1424 104.622 97.309 104.577C97.492 104.527 97.524 104.563 97.4844 104.543L97.7081 104.096L97.9317 103.648C97.6422 103.504 97.3141 103.539 97.0468 103.612C96.7631 103.689 96.45 103.834 96.1224 104.028C95.4645 104.417 94.6796 105.043 93.8464 105.876C92.1769 107.547 90.2682 110.095 88.7555 113.386L89.2098 113.595ZM83.2115 132.595L82.7212 132.497C82.7067 132.569 82.7026 132.587 82.7048 132.578C82.7054 132.576 82.7072 132.569 82.71 132.56C82.7113 132.555 82.7142 132.546 82.7185 132.534C82.7197 132.531 82.7325 132.494 82.7574 132.451C82.7624 132.443 82.8077 132.36 82.9025 132.294C82.9617 132.259 83.1226 132.209 83.2226 132.205C83.3314 132.225 83.5048 132.317 83.5669 132.377C83.664 132.49 83.6801 132.612 83.6811 132.618C83.687 132.652 83.688 132.679 83.6884 132.69C83.6891 132.714 83.6877 132.733 83.6873 132.739C83.6867 132.747 83.686 132.754 83.6856 132.758C83.6838 132.775 83.6813 132.788 83.6828 132.779C83.6837 132.774 83.686 132.761 83.6902 132.739C83.7065 132.653 83.7438 132.464 83.8013 132.184L83.3115 132.083L82.8217 131.983C82.7637 132.265 82.7253 132.46 82.7076 132.553C82.7033 132.576 82.6997 132.595 82.6973 132.609C82.6972 132.61 82.6937 132.629 82.6916 132.649C82.6912 132.653 82.6904 132.66 82.6898 132.668C82.6894 132.674 82.6881 132.694 82.6888 132.718C82.6891 132.729 82.6901 132.756 82.696 132.79C82.6971 132.796 82.7132 132.919 82.8102 133.031C82.8724 133.091 83.0458 133.183 83.1546 133.203C83.2546 133.2 83.4155 133.15 83.4747 133.114C83.5695 133.048 83.6148 132.966 83.6199 132.957C83.6448 132.915 83.6577 132.877 83.659 132.874C83.6633 132.862 83.6663 132.852 83.6677 132.847C83.6706 132.838 83.6727 132.83 83.6735 132.826C83.6798 132.802 83.6906 132.749 83.7018 132.693L83.2115 132.595ZM83.3115 132.083L83.8013 132.184C84.1408 130.531 85.1717 125.787 86.6893 120.739L86.2105 120.595L85.7317 120.451C84.2021 125.539 83.1643 130.315 82.8217 131.983L83.3115 132.083ZM86.2105 120.595L86.6858 120.75C87.4917 118.281 88.5995 116.12 89.6641 113.804L89.2098 113.595L88.7555 113.386C87.7132 115.654 86.5646 117.898 85.7352 120.44L86.2105 120.595ZM119.224 103.091C119.72 103.157 119.72 103.157 119.72 103.157C119.72 103.156 119.72 103.156 119.72 103.156C119.72 103.156 119.72 103.155 119.72 103.155C119.72 103.154 119.721 103.152 119.721 103.15C119.721 103.147 119.722 103.141 119.723 103.135C119.725 103.121 119.727 103.101 119.73 103.076C119.736 103.026 119.744 102.952 119.753 102.859C119.772 102.674 119.795 102.409 119.814 102.088C119.851 101.448 119.87 100.579 119.797 99.6734C119.724 98.773 119.557 97.8058 119.204 96.9852C118.852 96.1636 118.286 95.4305 117.388 95.1187L117.224 95.5911L117.06 96.0634C117.594 96.2487 117.995 96.7016 118.286 97.3795C118.577 98.0584 118.731 98.904 118.8 99.7543C118.868 100.599 118.851 101.419 118.815 102.03C118.798 102.335 118.776 102.586 118.758 102.76C118.75 102.847 118.742 102.914 118.737 102.959C118.734 102.982 118.732 102.999 118.731 103.01C118.73 103.016 118.729 103.02 118.729 103.022C118.729 103.024 118.729 103.024 118.729 103.025C118.729 103.025 118.729 103.025 118.729 103.025C118.729 103.025 118.729 103.025 118.729 103.025C118.729 103.025 118.729 103.025 119.224 103.091ZM107.224 106.091L106.755 105.92C105.87 108.343 105.355 110.774 105.322 112.934C105.288 115.087 105.733 117.027 106.834 118.404L107.224 118.091L107.615 117.779C106.716 116.655 106.29 114.981 106.321 112.95C106.353 110.928 106.838 108.609 107.694 106.263L107.224 106.091ZM107.224 118.091L106.834 118.404C107.298 118.984 107.746 119.415 108.299 119.695C108.853 119.975 109.466 120.079 110.216 120.091L110.224 119.591L110.233 119.091C109.562 119.08 109.118 118.988 108.75 118.802C108.38 118.615 108.038 118.308 107.615 117.779L107.224 118.091ZM110.224 119.591L110.216 120.091C112.872 120.136 115.151 117.871 116.189 115.277L115.724 115.091L115.26 114.906C114.298 117.312 112.295 119.126 110.233 119.091L110.224 119.591ZM115.724 115.091L116.189 115.277C116.686 114.033 117.309 112.564 117.805 111.459C118.055 110.904 118.269 110.449 118.418 110.16C118.497 110.009 118.545 109.929 118.564 109.903C118.567 109.898 118.561 109.908 118.545 109.924C118.544 109.925 118.478 109.999 118.358 110.037C118.284 110.06 118.163 110.077 118.03 110.024C117.896 109.971 117.82 109.875 117.782 109.806C117.72 109.693 117.724 109.592 117.724 109.591H118.224H118.724C118.724 109.566 118.726 109.447 118.658 109.324C118.617 109.249 118.537 109.15 118.399 109.095C118.262 109.04 118.136 109.058 118.057 109.083C117.925 109.124 117.845 109.209 117.828 109.227C117.796 109.26 117.77 109.293 117.752 109.318C117.685 109.411 117.608 109.551 117.53 109.7C117.368 110.015 117.144 110.491 116.893 111.049C116.39 112.168 115.763 113.65 115.26 114.906L115.724 115.091ZM118.224 109.591H117.724C117.724 109.586 117.723 109.621 117.712 109.731C117.702 109.827 117.688 109.96 117.669 110.126C117.631 110.457 117.577 110.916 117.509 111.473C117.374 112.587 117.187 114.089 116.978 115.741C116.562 119.045 116.062 122.944 115.729 125.527L116.224 125.591L116.72 125.655C117.054 123.072 117.554 119.171 117.97 115.866C118.179 114.214 118.366 112.71 118.502 111.594C118.57 111.036 118.625 110.574 118.663 110.238C118.698 109.925 118.724 109.678 118.724 109.591H118.224ZM116.224 125.591L115.774 125.374L109.274 138.874L109.724 139.091L110.175 139.308L116.675 125.808L116.224 125.591ZM109.724 139.091C109.294 138.837 109.294 138.837 109.294 138.837C109.294 138.837 109.294 138.837 109.294 138.838C109.293 138.838 109.293 138.839 109.293 138.839C109.292 138.841 109.29 138.843 109.289 138.846C109.286 138.851 109.281 138.859 109.274 138.87C109.262 138.891 109.243 138.923 109.219 138.965C109.171 139.048 109.1 139.17 109.009 139.328C108.828 139.644 108.569 140.101 108.255 140.67C107.628 141.808 106.78 143.393 105.901 145.183C104.151 148.745 102.243 153.182 101.73 156.515L102.224 156.591L102.719 156.667C103.206 153.501 105.048 149.187 106.798 145.624C107.669 143.852 108.509 142.281 109.131 141.153C109.442 140.589 109.698 140.137 109.877 139.825C109.966 139.67 110.036 139.549 110.083 139.468C110.107 139.427 110.125 139.397 110.137 139.376C110.143 139.366 110.148 139.358 110.151 139.353C110.152 139.35 110.153 139.349 110.154 139.347C110.154 139.347 110.155 139.346 110.155 139.346C110.155 139.346 110.155 139.346 110.155 139.346C110.155 139.346 110.155 139.346 109.724 139.091ZM102.224 156.591L101.73 156.515C101.262 159.555 101.576 162.817 104.47 164.522L104.724 164.091L104.978 163.661C102.649 162.288 102.264 159.62 102.719 156.667L102.224 156.591ZM104.724 164.091L104.47 164.522C106.203 165.543 107.701 165.115 109.38 164.567L109.224 164.091L109.069 163.616C107.387 164.166 106.292 164.435 104.978 163.661L104.724 164.091ZM109.224 164.091L109.38 164.567C110.4 164.233 111.023 163.725 111.498 163.053C111.939 162.428 112.266 161.626 112.671 160.815L112.224 160.591L111.777 160.368C111.318 161.285 111.064 161.933 110.681 162.476C110.331 162.972 109.886 163.349 109.069 163.616L109.224 164.091ZM112.224 160.591L112.671 160.815C113.197 159.764 113.67 158.219 114.028 156.774C114.388 155.324 114.643 153.924 114.722 153.141L114.224 153.091L113.727 153.042C113.655 153.759 113.411 155.108 113.058 156.534C112.703 157.963 112.251 159.419 111.777 160.368L112.224 160.591ZM114.224 153.091L114.722 153.141C115.224 148.122 115.474 141.982 115.599 137.104C115.662 134.664 115.693 132.536 115.709 131.018C115.717 130.26 115.72 129.653 115.722 129.236C115.723 129.028 115.724 128.867 115.724 128.758C115.724 128.703 115.724 128.662 115.724 128.634C115.724 128.62 115.724 128.609 115.724 128.602C115.724 128.599 115.724 128.596 115.724 128.594C115.724 128.593 115.724 128.593 115.724 128.592C115.724 128.592 115.724 128.592 115.724 128.592C115.724 128.591 115.724 128.591 115.224 128.591C114.724 128.591 114.724 128.591 114.724 128.591C114.724 128.592 114.724 128.592 114.724 128.592C114.724 128.592 114.724 128.593 114.724 128.594C114.724 128.596 114.724 128.598 114.724 128.602C114.724 128.608 114.724 128.619 114.724 128.633C114.724 128.66 114.724 128.701 114.724 128.755C114.724 128.864 114.723 129.024 114.722 129.232C114.72 129.647 114.717 130.251 114.709 131.008C114.693 132.522 114.662 134.644 114.599 137.078C114.475 141.95 114.225 148.06 113.727 153.042L114.224 153.091ZM130.724 97.0913L131.163 97.3307L134.163 91.8307L133.724 91.5913L133.285 91.3519L130.285 96.8519L130.724 97.0913ZM133.724 91.5913C134.151 91.8519 134.151 91.852 134.151 91.8521C134.151 91.8521 134.151 91.8522 134.151 91.8522C134.151 91.8523 134.151 91.8524 134.151 91.8524C134.151 91.8524 134.151 91.8522 134.151 91.852C134.151 91.8514 134.152 91.8502 134.153 91.8485C134.155 91.845 134.159 91.8393 134.164 91.8314C134.174 91.8156 134.19 91.7913 134.211 91.7597C134.253 91.6965 134.316 91.6045 134.398 91.4934C134.564 91.2704 134.802 90.9749 135.095 90.6824C135.702 90.0768 136.451 89.5777 137.215 89.5911L137.224 89.0912L137.233 88.5912C136.045 88.5704 135.044 89.3214 134.389 89.9744C134.051 90.3112 133.781 90.6472 133.595 90.8983C133.502 91.0242 133.429 91.13 133.379 91.2052C133.354 91.2429 133.334 91.273 133.32 91.2944C133.314 91.305 133.308 91.3135 133.305 91.3196C133.303 91.3227 133.301 91.3251 133.3 91.327C133.299 91.3279 133.299 91.3287 133.299 91.3293C133.298 91.3296 133.298 91.3299 133.298 91.3302C133.298 91.3303 133.298 91.3304 133.298 91.3305C133.298 91.3306 133.298 91.3307 133.724 91.5913ZM137.224 89.0912L137.215 89.5911C139.132 89.6247 140.252 90.9099 141.284 92.8282L141.724 92.5913L142.165 92.3544C141.103 90.382 139.735 88.6351 137.233 88.5912L137.224 89.0912ZM141.724 92.5913L141.284 92.8282C142.454 95.0025 142.703 96.6566 142.724 98.5965L143.224 98.5911L143.724 98.5857C143.702 96.5253 143.429 94.7035 142.165 92.3544L141.724 92.5913ZM143.224 98.5911L142.724 98.5965C142.753 101.297 142.385 103.451 141.27 105.883L141.724 106.091L142.179 106.3C143.366 103.711 143.755 101.407 143.724 98.5857L143.224 98.5911ZM141.724 106.091L141.27 105.883C140.39 107.801 139.392 108.712 137.947 109.675L138.224 110.091L138.502 110.507C140.056 109.471 141.202 108.429 142.179 106.3L141.724 106.091ZM138.224 110.091L137.947 109.675C136.778 110.454 135.94 110.93 134.866 110.612L134.724 111.091L134.582 111.571C136.157 112.037 137.373 111.26 138.502 110.507L138.224 110.091ZM134.724 111.091L134.866 110.612C134.312 110.448 133.905 110.245 133.571 109.976C133.236 109.706 132.948 109.349 132.659 108.843L132.224 109.091L131.79 109.339C132.121 109.919 132.484 110.385 132.944 110.755C133.405 111.126 133.938 111.38 134.582 111.571L134.724 111.091ZM115.224 128.591L115.673 128.812L131.173 97.3121L130.724 97.0913L130.276 96.8706L114.776 128.371L115.224 128.591ZM132.224 109.091L132.659 108.843C132.2 108.041 131.869 106.918 131.638 105.65C131.409 104.39 131.286 103.023 131.224 101.754C131.162 100.487 131.162 99.327 131.177 98.4833C131.185 98.0617 131.197 97.7197 131.206 97.4838C131.211 97.3658 131.216 97.2744 131.219 97.2128C131.22 97.1819 131.221 97.1586 131.222 97.1431C131.223 97.1354 131.223 97.1296 131.223 97.1258C131.223 97.124 131.223 97.1226 131.223 97.1217C131.223 97.1213 131.224 97.121 131.224 97.1208C131.224 97.1207 131.224 97.1207 131.224 97.1207C131.224 97.1207 131.224 97.1207 130.724 97.0913C130.225 97.0619 130.225 97.062 130.225 97.0622C130.225 97.0623 130.225 97.0624 130.225 97.0626C130.225 97.0629 130.225 97.0634 130.225 97.064C130.225 97.0652 130.225 97.0669 130.225 97.0691C130.225 97.0736 130.224 97.0801 130.224 97.0885C130.223 97.1054 130.222 97.1302 130.22 97.1625C130.217 97.2271 130.212 97.3217 130.207 97.443C130.197 97.6855 130.185 98.035 130.178 98.4649C130.162 99.3243 130.162 100.508 130.225 101.803C130.288 103.097 130.415 104.511 130.654 105.829C130.893 107.139 131.249 108.392 131.79 109.339L132.224 109.091ZM117.224 95.5911L117.388 95.1187C115.987 94.6324 114.727 94.8965 113.629 95.5541C112.551 96.1997 111.623 97.2265 110.824 98.2913L111.224 98.5913L111.624 98.8913C112.398 97.8604 113.232 96.9574 114.143 96.412C115.033 95.8787 115.986 95.6906 117.06 96.0634L117.224 95.5911ZM111.224 98.5913L110.824 98.2913C109.295 100.331 107.886 102.821 106.755 105.92L107.224 106.091L107.694 106.263C108.792 103.256 110.154 100.852 111.624 98.8913L111.224 98.5913ZM149.724 91.0909L150.126 91.3878L164.845 71.4468L164.442 71.1498L164.04 70.8529L149.322 90.794L149.724 91.0909ZM164.442 71.1498L164.845 71.4468L165.626 70.3878L165.224 70.0909L164.822 69.794L164.04 70.8529L164.442 71.1498ZM165.224 70.0909C165.636 70.3742 165.636 70.3741 165.636 70.3741C165.636 70.374 165.636 70.3739 165.636 70.3737C165.636 70.3735 165.637 70.3731 165.637 70.3726C165.638 70.3716 165.639 70.3701 165.64 70.3681C165.643 70.3641 165.647 70.3583 165.652 70.3505C165.663 70.3351 165.678 70.3121 165.699 70.282C165.74 70.2219 165.801 70.1331 165.879 70.0184C166.035 69.7891 166.26 69.4561 166.538 69.0411C167.094 68.211 167.861 67.0521 168.707 65.7364C170.395 63.1101 172.408 59.8407 173.671 57.3148L173.224 57.0911L172.777 56.8675C171.54 59.3416 169.552 62.5721 167.866 65.1956C167.024 66.5049 166.26 67.6584 165.707 68.4846C165.43 68.8976 165.206 69.2287 165.052 69.4564C164.974 69.5702 164.914 69.6582 164.874 69.7176C164.853 69.7474 164.838 69.7699 164.827 69.7851C164.822 69.7926 164.818 69.7983 164.816 69.8021C164.814 69.804 164.813 69.8054 164.813 69.8063C164.813 69.8068 164.812 69.8071 164.812 69.8073C164.812 69.8074 164.812 69.8075 164.812 69.8076C164.812 69.8076 164.812 69.8076 165.224 70.0909ZM173.224 57.0911L173.671 57.3148C174.919 54.8185 176.557 51.5449 177.755 48.3282C178.354 46.719 178.849 45.1117 179.129 43.6128C179.409 42.1189 179.483 40.7002 179.212 39.4827L178.724 39.5912L178.236 39.6996C178.465 40.7321 178.414 42.0009 178.147 43.4289C177.88 44.8518 177.406 46.4008 176.818 47.9791C175.641 51.1374 174.029 54.3638 172.777 56.8675L173.224 57.0911ZM178.724 39.5912L179.212 39.4827C178.751 37.409 177.683 35.3452 175.276 35.0939L175.224 35.5912L175.172 36.0884C176.894 36.2683 177.796 37.7208 178.236 39.6996L178.724 39.5912ZM175.224 35.5912L175.276 35.0939C174.478 35.0105 173.722 35.0778 173.04 35.3563C172.352 35.637 171.771 36.1195 171.308 36.8138L171.724 37.0912L172.14 37.3685C172.502 36.8255 172.931 36.4808 173.418 36.2821C173.909 36.0814 174.491 36.0173 175.172 36.0884L175.224 35.5912ZM171.724 37.0912L171.308 36.8138C169.259 39.887 168.742 41.9588 167.743 45.4538L168.224 45.5911L168.705 45.7285C169.706 42.2235 170.189 40.2953 172.14 37.3685L171.724 37.0912ZM168.224 45.5911L167.743 45.4538C167.139 47.5667 166.512 50.2028 166.036 52.3052C165.798 53.3575 165.598 54.2783 165.457 54.9361C165.386 55.2651 165.331 55.5283 165.293 55.7094C165.274 55.8 165.259 55.87 165.249 55.9175C165.244 55.9412 165.241 55.9593 165.238 55.9715C165.237 55.9776 165.236 55.9822 165.235 55.9853C165.235 55.9869 165.235 55.988 165.235 55.9888C165.234 55.9892 165.234 55.9895 165.234 55.9898C165.234 55.9899 165.234 55.9899 165.234 55.99C165.234 55.9901 165.234 55.9901 165.724 56.0911C166.214 56.1922 166.214 56.1922 166.214 56.1922C166.214 56.1921 166.214 56.1921 166.214 56.192C166.214 56.1918 166.214 56.1915 166.214 56.1912C166.214 56.1904 166.214 56.1893 166.215 56.1878C166.215 56.1848 166.216 56.1804 166.217 56.1744C166.22 56.1625 166.223 56.1447 166.228 56.1212C166.238 56.0743 166.253 56.0049 166.271 55.9149C166.309 55.735 166.365 55.4731 166.435 55.1457C166.575 54.4907 166.775 53.5737 167.012 52.5258C167.486 50.4277 168.109 47.8138 168.705 45.7285L168.224 45.5911ZM165.724 56.0911L165.226 56.0487L163.944 71.1074L164.442 71.1498L164.941 71.1922L166.222 56.1335L165.724 56.0911ZM164.442 71.1498L163.944 71.1074L163.226 79.5487L163.724 79.5911L164.222 79.6335L164.941 71.1922L164.442 71.1498ZM163.724 79.5911C163.224 79.5684 163.224 79.5685 163.224 79.5686C163.224 79.5687 163.224 79.5688 163.224 79.569C163.224 79.5693 163.224 79.5698 163.224 79.5705C163.224 79.5718 163.224 79.5738 163.224 79.5764C163.224 79.5817 163.223 79.5897 163.223 79.6001C163.222 79.621 163.221 79.652 163.219 79.6924C163.215 79.7734 163.21 79.8924 163.203 80.0443C163.189 80.348 163.17 80.7837 163.146 81.3111C163.099 82.366 163.037 83.7882 162.974 85.2574C162.85 88.1868 162.724 91.3273 162.724 92.0911H163.224H163.724C163.724 91.355 163.848 88.2455 163.973 85.2999C164.036 83.8316 164.098 82.41 164.145 81.3555C164.169 80.8283 164.188 80.3928 164.202 80.0892C164.209 79.9374 164.214 79.8185 164.218 79.7377C164.22 79.6972 164.221 79.6662 164.222 79.6454C164.222 79.635 164.223 79.6271 164.223 79.6218C164.223 79.6192 164.223 79.6172 164.223 79.6158C164.223 79.6152 164.223 79.6147 164.223 79.6143C164.223 79.6142 164.223 79.6141 164.223 79.614C164.223 79.6139 164.223 79.6139 163.724 79.5911ZM163.224 92.0911H162.724C162.724 92.7909 162.632 94.2235 162.847 95.4568C162.956 96.0783 163.15 96.7106 163.515 97.2034C163.896 97.7184 164.453 98.0629 165.205 98.0908L165.224 97.5912L165.242 97.0915C164.816 97.0757 164.533 96.8984 164.319 96.6084C164.087 96.2961 163.929 95.8401 163.832 95.285C163.637 94.1651 163.724 92.8914 163.724 92.0911H163.224ZM165.224 97.5912L165.205 98.0908C166.426 98.136 167.337 97.3159 168.005 96.456C168.666 95.6045 169.236 94.5037 169.646 93.8596L169.224 93.5912L168.802 93.3227C168.31 94.0958 167.846 95.0307 167.215 95.8428C166.591 96.6465 165.954 97.1178 165.242 97.0915L165.224 97.5912ZM169.224 93.5912L169.646 93.8596C171.415 91.0797 174.428 85.0503 176.987 79.7459C178.269 77.0873 179.442 74.6011 180.294 72.7796C180.72 71.8688 181.066 71.124 181.306 70.6069C181.425 70.3484 181.518 70.1467 181.582 70.0097C181.613 69.9411 181.637 69.8887 181.654 69.8535C181.662 69.8358 181.668 69.8224 181.672 69.8135C181.674 69.809 181.676 69.8056 181.677 69.8033C181.677 69.8022 181.678 69.8014 181.678 69.8008C181.678 69.8005 181.678 69.8003 181.678 69.8001C181.678 69.8 181.678 69.7999 181.224 69.5911C180.77 69.3824 180.77 69.3825 180.77 69.3826C180.769 69.3827 180.769 69.3829 180.769 69.3832C180.769 69.3838 180.769 69.3846 180.768 69.3857C180.767 69.3879 180.766 69.3912 180.764 69.3957C180.759 69.4045 180.753 69.4178 180.745 69.4353C180.729 69.4704 180.705 69.5225 180.674 69.5909C180.611 69.7275 180.518 69.9286 180.398 70.1867C180.159 70.7028 179.814 71.4463 179.388 72.3558C178.537 74.175 177.366 76.6575 176.086 79.3114C173.52 84.632 170.533 90.6027 168.802 93.3227L169.224 93.5912ZM181.224 69.5911C181.692 69.7664 181.692 69.7664 181.692 69.7664C181.692 69.7664 181.692 69.7665 181.692 69.7664C181.692 69.7664 181.692 69.7664 181.692 69.7662C181.692 69.766 181.693 69.7655 181.693 69.7648C181.693 69.7635 181.694 69.7613 181.695 69.7583C181.698 69.7522 181.701 69.743 181.706 69.7306C181.715 69.7058 181.73 69.6687 181.749 69.6206C181.787 69.5243 181.844 69.3841 181.917 69.2109C182.064 68.8642 182.277 68.3871 182.541 67.8661C183.078 66.8057 183.792 65.6318 184.553 64.9678L184.224 64.5911L183.895 64.2145C182.979 65.0147 182.193 66.3407 181.649 67.4143C181.372 67.9603 181.15 68.4587 180.997 68.8206C180.92 69.0018 180.86 69.1493 180.819 69.2522C180.799 69.3036 180.783 69.3438 180.773 69.3716C180.767 69.3855 180.763 69.3962 180.76 69.4037C180.759 69.4074 180.758 69.4103 180.757 69.4123C180.757 69.4134 180.756 69.4142 180.756 69.4148C180.756 69.4151 180.756 69.4153 180.756 69.4155C180.756 69.4156 180.756 69.4157 180.756 69.4158C180.756 69.4159 180.756 69.4159 181.224 69.5911ZM184.224 64.5911L184.553 64.9678C185.365 64.2586 185.921 63.9832 186.274 63.9389C186.432 63.9189 186.537 63.9472 186.617 63.9938C186.703 64.0442 186.8 64.1406 186.896 64.3198C187.097 64.6927 187.233 65.3101 187.293 66.1734C187.352 67.0225 187.335 68.0519 187.269 69.2083C187.138 71.5256 186.816 74.2789 186.555 77.0202C186.296 79.7437 186.097 82.4525 186.225 84.6205L186.724 84.5911L187.223 84.5618C187.101 82.4798 187.292 79.8413 187.551 77.1149C187.809 74.4065 188.135 71.6075 188.268 69.265C188.335 68.0914 188.354 67.0141 188.291 66.1038C188.228 65.2077 188.082 64.4133 187.777 63.8461C187.621 63.5553 187.409 63.2996 187.123 63.1314C186.83 62.9595 186.498 62.9027 186.149 62.9467C185.485 63.0303 184.738 63.479 183.895 64.2145L184.224 64.5911ZM186.724 84.5911L186.225 84.6205C186.252 85.0752 186.249 85.4253 186.26 85.766C186.27 86.0863 186.291 86.4077 186.387 86.7018C186.606 87.371 187.15 87.7309 188.052 88.0608L188.224 87.5911L188.396 87.1215C187.558 86.8156 187.406 86.6001 187.337 86.3905C187.29 86.2453 187.269 86.0515 187.259 85.7352C187.25 85.4394 187.251 85.0317 187.223 84.5618L186.724 84.5911ZM188.224 87.5911L188.052 88.0608C189.164 88.467 190.078 88.333 190.848 87.8427C191.578 87.3788 192.14 86.6179 192.64 85.8685L192.224 85.5911L191.808 85.3138C191.308 86.0644 190.845 86.6597 190.312 86.9989C189.82 87.3118 189.234 87.4278 188.396 87.1215L188.224 87.5911ZM192.224 85.5911L192.64 85.8685C194.291 83.3918 196.312 78.5845 198.336 73.7136C200.376 68.8027 202.427 63.8063 204.156 60.8431L203.724 60.5911L203.292 60.3392C201.521 63.376 199.439 68.4537 197.413 73.3299C195.37 78.2461 193.391 82.9389 191.808 85.3138L192.224 85.5911ZM203.724 60.5911L204.156 60.8431C204.258 60.668 204.4 60.3711 204.552 60.0501C204.709 59.718 204.887 59.3379 205.074 58.9661C205.261 58.593 205.449 58.2411 205.624 57.9658C205.712 57.8282 205.79 57.7184 205.858 57.638C205.931 57.5512 205.969 57.5271 205.968 57.5274L205.724 57.0911L205.48 56.6549C205.325 56.7413 205.196 56.8719 205.094 56.9927C204.987 57.1199 204.881 57.2704 204.78 57.4295C204.578 57.7477 204.371 58.1353 204.18 58.5181C203.987 58.9023 203.803 59.2947 203.648 59.6221C203.488 59.9606 203.367 60.2103 203.292 60.3392L203.724 60.5911ZM210.224 76.5911L210 77.0384C210.599 77.3376 211.144 77.2644 211.62 77.0993C211.848 77.0204 212.073 76.9159 212.277 76.8222C212.488 76.725 212.685 76.6352 212.891 76.5626L212.724 76.0911L212.557 75.6197C212.303 75.7098 212.066 75.8184 211.859 75.9137C211.644 76.0125 211.465 76.0945 211.292 76.1545C210.967 76.2672 210.722 76.2813 210.448 76.1439L210.224 76.5911ZM212.724 76.0911L212.891 76.5626C213.85 76.2235 214.551 75.3477 214.991 74.6471C215.219 74.2851 215.392 73.9433 215.509 73.6923C215.568 73.5664 215.613 73.4624 215.643 73.3888C215.659 73.352 215.67 73.3227 215.678 73.302C215.682 73.2917 215.686 73.2835 215.688 73.2776C215.689 73.2747 215.69 73.2723 215.691 73.2705C215.691 73.2696 215.691 73.2689 215.692 73.2683C215.692 73.268 215.692 73.2677 215.692 73.2675C215.692 73.2674 215.692 73.2672 215.692 73.2672C215.692 73.2671 215.692 73.2669 215.224 73.0911C214.756 72.9154 214.756 72.9153 214.756 72.9152C214.756 72.9152 214.756 72.9151 214.756 72.915C214.756 72.915 214.756 72.9149 214.756 72.9149C214.756 72.9149 214.756 72.915 214.756 72.9153C214.756 72.9159 214.755 72.917 214.755 72.9187C214.753 72.9221 214.751 72.9277 214.748 72.9353C214.742 72.9507 214.733 72.9744 214.72 73.0054C214.694 73.0674 214.655 73.1584 214.603 73.27C214.498 73.494 214.344 73.7973 214.144 74.1153C213.73 74.7748 213.182 75.3989 212.557 75.6197L212.724 76.0911ZM215.224 73.0911C215.681 73.2942 215.681 73.2942 215.681 73.2941C215.681 73.294 215.681 73.2938 215.681 73.2936C215.681 73.2932 215.682 73.2926 215.682 73.2918C215.683 73.2901 215.684 73.2877 215.685 73.2844C215.688 73.2779 215.692 73.2682 215.698 73.2554C215.71 73.2297 215.726 73.1916 215.749 73.1417C215.793 73.042 215.858 72.8952 215.942 72.7072C216.109 72.3312 216.349 71.7901 216.642 71.1299C217.228 69.8095 218.025 68.0125 218.869 66.106C220.556 62.2947 222.432 58.0415 223.184 56.2881L222.724 56.0911L222.264 55.8942C221.516 57.6408 219.642 61.8876 217.954 65.7013C217.111 67.6073 216.314 69.4041 215.728 70.7243C215.435 71.3844 215.195 71.9253 215.028 72.3013C214.944 72.4892 214.879 72.636 214.835 72.7357C214.813 72.7855 214.796 72.8236 214.784 72.8493C214.779 72.8621 214.774 72.8718 214.771 72.8783C214.77 72.8815 214.769 72.884 214.768 72.8856C214.768 72.8864 214.767 72.8871 214.767 72.8875C214.767 72.8877 214.767 72.8878 214.767 72.8879C214.767 72.888 214.767 72.8881 215.224 73.0911ZM222.724 56.0911L223.184 56.2881C223.93 54.547 224.637 52.4948 225.268 50.9301C225.591 50.1272 225.9 49.4373 226.2 48.9186C226.516 48.3726 226.765 48.1201 226.927 48.0481L226.724 47.5911L226.521 47.1342C226.04 47.3481 225.655 47.8636 225.334 48.4181C224.998 48.9998 224.668 49.743 224.34 50.5561C223.668 52.2234 223.018 54.1353 222.264 55.8942L222.724 56.0911ZM226.724 47.5911L226.927 48.0481C227.414 47.8315 227.791 47.8047 228.093 47.8793C228.397 47.9544 228.688 48.1481 228.973 48.4894C229.559 49.1931 230.022 50.4079 230.428 51.967C230.829 53.5102 231.153 55.3003 231.507 57.109C231.858 58.9045 232.238 60.715 232.75 62.2493L233.224 62.0911L233.698 61.933C233.21 60.4673 232.84 58.7153 232.488 56.917C232.139 55.132 231.807 53.2971 231.395 51.7153C230.988 50.1494 230.483 48.7392 229.741 47.8492C229.361 47.3935 228.898 47.0482 228.333 46.9085C227.766 46.7683 227.159 46.8508 226.521 47.1342L226.724 47.5911ZM233.224 62.0911L232.75 62.2493C232.998 62.9937 233.39 63.9591 233.925 64.7879C234.446 65.5968 235.171 66.3825 236.122 66.5806L236.224 66.0911L236.326 65.6017C235.784 65.4886 235.25 64.9977 234.765 64.246C234.293 63.5144 233.932 62.6354 233.698 61.933L233.224 62.0911ZM236.224 66.0911L236.122 66.5806C236.697 66.7006 237.189 66.8063 237.655 66.7348C238.155 66.6581 238.566 66.3934 239.053 65.9674L238.724 65.5911L238.395 65.2149C237.952 65.6022 237.718 65.7134 237.503 65.7464C237.254 65.7846 236.96 65.7337 236.326 65.6017L236.224 66.0911ZM238.724 65.5911L239.053 65.9674C241.089 64.1865 243.362 61.5321 245.114 59.341C245.994 58.242 246.747 57.2531 247.281 56.5389C247.548 56.1817 247.76 55.893 247.905 55.6933C247.978 55.5935 248.034 55.5159 248.072 55.4631C248.091 55.4367 248.106 55.4165 248.116 55.4029C248.121 55.396 248.124 55.3908 248.127 55.3873C248.128 55.3855 248.129 55.3842 248.13 55.3833C248.13 55.3828 248.13 55.3825 248.13 55.3822C248.131 55.3821 248.131 55.382 248.131 55.3819C248.131 55.3818 248.131 55.3818 247.724 55.0911C247.317 54.8005 247.317 54.8005 247.317 54.8006C247.317 54.8006 247.317 54.8006 247.317 54.8007C247.317 54.8009 247.317 54.8012 247.316 54.8016C247.316 54.8024 247.315 54.8035 247.314 54.8052C247.311 54.8084 247.308 54.8133 247.303 54.8198C247.294 54.8328 247.28 54.8524 247.261 54.8781C247.224 54.9296 247.169 55.0058 247.097 55.1042C246.954 55.301 246.744 55.5865 246.48 55.9403C245.951 56.6479 245.204 57.6278 244.333 58.7163C242.586 60.9002 240.359 63.4958 238.395 65.2149L238.724 65.5911ZM247.724 55.0911C248.117 55.4001 248.117 55.4001 248.117 55.4C248.117 55.4 248.117 55.4 248.117 55.4C248.117 55.4 248.117 55.3999 248.117 55.3999C248.117 55.3998 248.117 55.3996 248.118 55.3994C248.118 55.399 248.118 55.3983 248.119 55.3975C248.12 55.3959 248.122 55.3935 248.125 55.3903C248.13 55.3839 248.137 55.3744 248.147 55.3619C248.167 55.337 248.195 55.3 248.233 55.2517C248.308 55.1552 248.419 55.0133 248.559 54.8318C248.84 54.4687 249.241 53.9467 249.722 53.3103L249.323 53.0086L248.925 52.7069C248.446 53.3402 248.047 53.8594 247.768 54.2202C247.628 54.4006 247.519 54.5413 247.444 54.6368C247.407 54.6846 247.379 54.7211 247.36 54.7455C247.35 54.7578 247.343 54.767 247.338 54.7731C247.336 54.7762 247.334 54.7785 247.333 54.78C247.332 54.7808 247.331 54.7814 247.331 54.7817C247.331 54.7819 247.331 54.782 247.331 54.7821C247.331 54.7822 247.331 54.7822 247.331 54.7822C247.331 54.7822 247.331 54.7822 247.331 54.7822C247.331 54.7822 247.331 54.7822 247.724 55.0911ZM249.323 53.0086L249.722 53.3103C251.581 50.8538 254.66 46.6698 256.653 43.3484L256.224 43.0912L255.795 42.8339C253.833 46.1048 250.783 50.2512 248.925 52.7069L249.323 53.0086ZM256.224 43.0912L256.653 43.3484C258.574 40.1456 259.724 37.7274 259.724 34.0912H259.224H258.724C258.724 37.4548 257.686 39.683 255.795 42.8339L256.224 43.0912ZM259.224 34.0912H259.724C259.724 33.196 259.742 32.3644 259.538 31.6394C259.32 30.8664 258.862 30.2342 257.996 29.6718L257.724 30.0911L257.452 30.5103C258.139 30.9572 258.431 31.3989 258.575 31.9104C258.733 32.4701 258.724 33.1339 258.724 34.0912H259.224ZM257.724 30.0911L257.996 29.6719L257.936 29.6328L257.664 30.052L257.391 30.4712L257.451 30.5102L257.724 30.0911ZM257.664 30.052L257.936 29.6328C256.991 29.0184 256.003 28.3531 254.635 28.599L254.724 29.0912L254.812 29.5833C255.735 29.4173 256.397 29.8246 257.391 30.4712L257.664 30.052ZM254.724 29.0912L254.635 28.599C253.899 28.7314 253.261 28.9479 252.702 29.3133C252.141 29.6802 251.688 30.1786 251.295 30.8338L251.724 31.0911L252.153 31.3483C252.484 30.7961 252.838 30.4191 253.25 30.1502C253.663 29.8798 254.163 29.7 254.812 29.5833L254.724 29.0912ZM251.724 31.0911L251.295 30.8338C249.743 33.4203 248.945 37.5422 248.736 38.4827L249.224 38.5912L249.712 38.6996C249.937 37.6876 250.705 33.7618 252.153 31.3483L251.724 31.0911ZM249.224 38.5912L248.736 38.4827C247.714 43.0794 248.229 45.6679 248.727 50.1463L249.224 50.0911L249.721 50.0359C249.218 45.514 248.734 43.1027 249.712 38.6996L249.224 38.5912ZM249.224 50.0911L248.727 50.1463C248.842 51.1778 248.808 52.091 248.824 53.0172L249.323 53.0086L249.823 53.0001C249.809 52.1367 249.842 51.1294 249.721 50.0359L249.224 50.0911ZM249.323 53.0086L248.824 53.0172C248.85 54.5424 249.016 56.0031 250.359 57.4334L250.724 57.0911L251.088 56.7489C250.003 55.5929 249.848 54.4443 249.823 53.0001L249.323 53.0086ZM250.724 57.0911L250.359 57.4334C250.922 58.0329 251.936 58.5753 252.943 58.9016C253.454 59.0675 253.988 59.1854 254.49 59.2245C254.985 59.2632 255.487 59.2281 255.913 59.0539L255.724 58.5911L255.535 58.1284C255.309 58.2207 254.981 58.2598 254.567 58.2275C254.16 58.1958 253.706 58.0978 253.251 57.9503C252.324 57.65 251.489 57.1758 251.088 56.7489L250.724 57.0911ZM255.724 58.5911L255.913 59.0539C261.42 56.8011 272.926 51.7983 283.05 47.3616C288.113 45.1426 292.832 43.0643 296.285 41.5408C298.012 40.779 299.422 40.1559 300.401 39.7233C300.89 39.5069 301.271 39.3382 301.531 39.2236C301.66 39.1662 301.759 39.1224 301.826 39.093C301.859 39.0782 301.884 39.0671 301.901 39.0596C301.909 39.0559 301.916 39.053 301.92 39.0512C301.922 39.0502 301.924 39.0495 301.925 39.049C301.925 39.0488 301.926 39.0486 301.926 39.0485C301.926 39.0484 301.926 39.0483 301.724 38.5912C301.521 38.134 301.521 38.134 301.521 38.1342C301.521 38.1343 301.52 38.1344 301.52 38.1347C301.519 38.1352 301.517 38.1359 301.515 38.1368C301.511 38.1387 301.505 38.1415 301.496 38.1452C301.479 38.1527 301.454 38.1638 301.421 38.1785C301.354 38.208 301.255 38.2518 301.126 38.3091C300.867 38.4237 300.486 38.5924 299.996 38.8087C299.018 39.2412 297.608 39.8642 295.882 40.6259C292.429 42.1492 287.71 44.2272 282.648 46.4457C272.521 50.884 261.028 55.8812 255.535 58.1284L255.724 58.5911ZM205.724 57.0911L205.968 57.5274C206.858 57.0291 207.296 57.0971 207.528 57.255C207.815 57.4504 208.068 57.9463 208.219 58.8774C208.515 60.7011 208.33 63.5264 208.224 66.5738L208.724 66.5911L209.224 66.6085C209.327 63.646 209.523 60.6679 209.207 58.7174C209.052 57.7614 208.751 56.8774 208.09 56.4281C207.375 55.9413 206.471 56.0998 205.48 56.6549L205.724 57.0911ZM208.724 66.5911L208.224 66.5738C208.122 69.4973 208.247 71.9069 208.529 73.6608C208.67 74.5359 208.853 75.2657 209.075 75.8204C209.286 76.3464 209.575 76.8258 210 77.0384L210.224 76.5911L210.448 76.1439C210.373 76.1065 210.199 75.9368 210.003 75.4483C209.819 74.9885 209.651 74.3384 209.517 73.502C209.248 71.8327 209.123 69.4922 209.224 66.6085L208.724 66.5911Z" fill="white"/>
</g>
<defs>
<clipPath id="clip0_3528_532">
<rect width="304.885" height="113.368" fill="white" transform="translate(0 78.9099) rotate(-15)"/>
</clipPath>
</defs>
</svg>
