<svg width="364" height="233" viewBox="0 0 364 233" fill="none" xmlns="http://www.w3.org/2000/svg">
<g clip-path="url(#clip0_3562_50)">
<g filter="url(#filter0_dd_3562_50)">
<path fill-rule="evenodd" clip-rule="evenodd" d="M206.763 62.5436L206.775 62.5733C207.183 63.4517 207.933 64.3187 208.29 64.5524L208.335 64.5834L208.383 64.5995C209.153 64.8664 209.676 64.7714 210.186 64.2726L210.203 64.2579L210.215 64.2423C210.49 63.9176 210.609 63.1201 210.79 61.5015C210.793 61.513 210.835 61.1931 210.835 61.1931C210.904 60.6973 210.975 60.1904 211.078 59.6771C211.429 57.9843 211.921 56.2844 212.189 55.3687C212.362 54.7709 212.39 54.6668 212.395 54.577L212.401 54.5384L212.395 54.5009C212.24 53.1245 210.731 52.7262 209.373 52.8143L209.333 52.8169L209.292 52.8277C208.66 52.9973 208.316 53.3198 208.037 53.9892C207.224 55.5571 206.668 57.3584 206.342 59.5016L206.331 59.5519L206.336 59.6019C206.349 59.7714 206.355 59.9406 206.365 60.1149C206.385 60.7105 206.407 61.3837 206.752 62.5196L206.763 62.5436ZM324.282 61.387C323.875 60.3229 322.803 59.4825 321.522 59.941L306.457 66.4739C296.825 70.6825 287.727 74.6576 277.879 78.6277L277.792 78.6634C276.824 79.0502 275.823 79.4563 274.835 79.8261C274.202 80.0719 273.647 80.0517 273.179 79.7634C272.495 79.3355 272.006 78.308 271.858 77.002C272.564 75.8476 273.553 74.4755 274.603 73.0233L276.14 70.8788C280.68 64.4187 284.624 57.1248 279.402 51.9923C278.708 51.3907 277.908 50.9247 277.042 50.6183C274.501 49.9021 272.372 50.5877 270.71 52.6566C266.314 58.1457 266.339 72.264 267.325 76.1813L265.191 78.7657C260.69 84.2315 257.435 88.182 256.476 87.4019C255.818 86.8497 255.188 83.8845 254.309 79.7821C253.827 77.5159 253.224 74.6978 252.451 71.4663L252.437 71.4164L252.26 70.929C251.978 70.1483 251.862 69.8831 251.085 68.9698L251.068 68.9537L251.056 68.9385C250.09 68.0201 249.018 67.6387 247.878 67.8023C246.231 68.0398 244.551 69.4427 243.277 71.6546C241.269 75.2445 239.418 80.5353 237.784 85.2081C236.02 90.2554 234.35 95.018 232.883 96.5698C232.44 97.0423 232.077 97.2075 231.964 97.1824C231.941 97.176 231.877 97.1129 231.821 96.9036C231.643 95.1179 231.669 92.7999 231.693 90.3425C231.755 84.8501 231.82 79.1695 229.771 77.099C229.519 76.836 229.216 76.6278 228.881 76.4875C228.545 76.3472 228.185 76.2778 227.821 76.2837C224.589 76.3267 221.775 81.8137 218.006 91.2854L216.936 94.0045C214.58 100.005 212.362 105.676 210.242 108.149C209.865 108.676 209.558 108.818 209.449 108.788C209.38 108.769 209.293 108.628 209.28 108.428C209.177 106.976 209.37 104.144 209.585 100.857C210.14 92.5556 210.448 86.0629 209.006 84.2967C208.216 83.2944 207.835 83.0385 206.65 83.1584C204.68 83.3034 201.956 87.2311 197.236 96.7109L193.815 103.768C190.856 109.942 188.056 115.781 186.138 118.289C186.019 118.423 185.878 118.535 185.721 118.621C185.69 118.524 185.674 118.423 185.674 118.321C185.985 114.295 186.091 110.709 186.197 107.238C186.296 103.947 186.399 100.543 186.671 96.7472C189.477 92.5891 192.074 88.293 194.452 83.875C200.482 72.7068 202.554 64.9059 200.601 60.6859C199.799 58.95 198.315 57.8435 196.207 57.3959C193.042 56.6388 190.345 58.5219 188.198 62.9888C184.493 70.7127 183.183 84.3902 182.483 91.7369L182.201 94.5495C180.027 97.7927 176.903 101.784 174.14 105.313C170.665 109.753 167.919 113.259 167.525 114.574C167.246 115.336 167.849 116.473 168.573 116.975C169.157 117.38 169.804 117.369 170.3 116.942C171.542 115.879 173.996 112.655 176.591 109.243C178.549 106.677 180.555 104.037 182.009 102.39C181.981 103.494 181.852 104.979 181.707 106.638C181.11 113.533 180.289 122.982 184.864 124.131L184.892 124.14L184.917 124.142C187.824 124.505 192.064 118.331 199.553 102.85L201.78 98.2136C203.181 95.2764 204.287 92.9592 204.891 91.9782C204.946 91.8997 204.982 91.8798 205.019 91.8719C205.024 91.9159 205.024 91.9603 205.017 92.0041L204.909 93.9715C204.399 102.899 204.045 111.769 205.775 113.55C206.804 114.637 207.944 115.07 209.164 114.844C212.454 114.232 216.178 108.777 220.557 98.1583C221.521 95.8421 222.428 93.5249 223.225 91.4838C224.425 88.4111 225.464 85.7537 226.207 84.3755L226.252 84.2769C226.272 84.3005 226.287 84.3269 226.298 84.3552C226.689 85.2773 226.68 87.7739 226.667 90.4196C226.644 95.4139 226.617 101.08 228.819 102.945C229.441 103.474 230.204 103.667 231.087 103.515C232.419 103.271 233.643 102.698 234.821 101.763C235.579 101.163 235.767 100.89 235.989 100.573L236.115 100.4C237.967 97.9897 241.249 89.8481 243.889 83.3067C245.405 79.5503 246.711 76.3071 247.39 75.0201C247.76 74.392 247.954 74.3093 247.992 74.2971C248.483 74.4967 249.006 77.4083 249.389 79.5407C250.106 83.5363 251.001 88.5129 253.115 90.9141C254.185 92.0308 255.371 92.5607 256.647 92.4967C260.041 92.3218 263.446 87.9503 266.452 84.0931C267.235 83.0869 267.979 82.1364 268.689 81.2958C269.708 83.5396 271.575 84.8707 273.899 84.9724C274.537 85.0298 276.088 84.5712 279.257 83.3967C291.348 78.8586 320.409 65.7233 323.557 63.8612L323.505 63.8876C324.367 63.531 324.699 62.4769 324.282 61.387ZM190.611 69.3654C191.573 66.2884 192.552 64.0322 193.446 62.8212C193.806 62.2599 194.611 62.2663 194.789 62.3009C195.04 62.3354 195.279 62.4318 195.483 62.5813C195.688 62.7308 195.853 62.9288 195.962 63.1575C196.993 65.1779 195.559 70.614 192.134 77.7012C190.233 81.6799 188.301 84.8854 187.417 86.007C187.324 83.9248 188.53 76.0904 190.611 69.3654ZM272.761 58.0316C273.535 56.2643 274.521 55.4795 275.769 55.641C276.005 55.6648 276.231 55.7445 276.43 55.8736C277.446 56.9266 276.494 60.7314 274.049 65.3705C272.955 67.4806 271.893 69.0863 271.162 69.9552L271.158 69.8964C271.221 67.1241 271.357 61.3609 272.761 58.0316ZM157.041 110.562C156.319 110.599 155.613 110.791 154.972 111.124C154.11 111.528 153.806 111.875 153.056 112.827C152.385 113.699 151.787 114.625 151.269 115.596C148.653 120.341 146.211 125.496 143.627 130.952C142.409 133.538 141.173 136.116 139.919 138.685C140.173 135.997 140.258 133.754 140.196 131.628L140.193 131.6L140.191 131.576C140.094 130.907 139.588 130.431 138.872 130.331C138.079 130.222 137.057 130.593 136.647 131.509L136.633 131.542L136.624 131.577C135.854 134.557 133.699 139.158 132.575 139.764C130.208 140.88 129.558 139.897 129.342 139.576C127.332 136.547 131.109 125.639 134.592 122.503C136.033 121.206 136.76 121.787 136.986 121.971C137.272 122.341 137.308 124.778 137.325 125.953C137.343 126.863 137.349 127.578 137.412 127.911C137.546 128.848 138.312 129.437 139.322 129.385C139.972 129.341 140.582 129.053 141.03 128.579C141.478 128.106 141.731 127.48 141.739 126.828C142.246 121.909 140.541 118.499 138.614 117.676C135.369 116.122 131.715 117.543 128.587 121.573C123.614 127.986 121.434 139.201 125.966 144.613C127.777 146.645 131.303 146.274 134.896 143.739L134.335 148.491L129.209 158.863C129.209 158.863 126.641 164.072 126.642 164.076L123.141 171.264L123.13 171.292L123.12 171.315L122.343 173.496C120.436 178.786 118.636 183.783 121.613 188.088C123.161 190.503 125.936 191.239 129.451 190.164C131.86 189.298 132.441 188.55 133.422 187.079C136.961 181.964 137.253 172.014 137.486 164.025C137.578 160.998 137.662 158.137 137.92 156.039L138.082 154.148C138.181 152.983 138.273 151.878 138.407 150.62C140.388 146.906 142.259 143.102 144.066 139.418C145.781 135.891 147.547 132.39 149.364 128.915C149.717 131.199 150.12 133.785 152.095 135.618C154.613 137.979 157.968 137.312 160.172 135.604C164.945 131.934 166.19 122.171 164.076 116.223C162.755 112.484 160.258 110.475 157.041 110.562ZM131.922 173.448C131.681 175.723 131.454 177.875 130.918 180.14C130.563 181.729 130.059 183.28 129.41 184.773C128.758 185.707 127.44 186.097 126.584 185.923C126.237 185.856 125.798 185.662 125.69 185.126C124.379 180.236 126.885 174.053 128.884 169.828C129.698 168.137 130.544 166.461 131.423 164.803C131.903 163.887 132.364 163.004 132.787 162.16C132.678 164.964 132.499 167.765 132.25 170.56C132.123 171.543 132.02 172.51 131.922 173.448ZM159.355 130.038C159.113 130.414 158.832 130.763 158.516 131.078C157.582 132.02 155.904 132.41 154.776 131.944L154.746 131.932L154.711 131.925C154.194 131.798 153.852 131.198 153.658 130.719C152.345 127.499 153.211 120.052 155.283 116.743C155.88 115.787 156.556 115.217 157.233 115.099C157.794 114.996 158.399 115.192 159.028 115.684C161.065 117.264 161.992 125.887 159.355 130.038ZM116.919 131.142C117.287 130.997 117.611 131 117.905 131.156C118.229 131.306 118.527 131.636 118.848 132.198L118.864 132.226L118.885 132.25C119.232 132.692 119.626 133.105 120.166 133.156C120.523 133.192 120.882 133.052 121.241 132.742C121.96 132.095 122.067 130.631 121.513 129.016C120.927 127.305 119.553 125.414 117.457 125.263L117.413 125.259L117.37 125.262C117.114 125.294 116.861 125.346 116.612 125.417C113.119 126.567 110.437 130.926 107.847 135.146C107.089 136.377 106.308 137.641 105.523 138.803L104.982 138.173L104.964 138.149L104.939 138.127C104.24 137.513 103.612 137.385 102.883 137.379C95.7366 137.316 78.8659 151.097 65.3049 162.17C56.9075 169.021 49.6608 174.943 46.7093 176.003C46.146 176.218 45.9676 176.151 45.9149 176.115C45.8618 176.078 45.7006 175.891 45.7529 175.058C45.7137 168.782 58.3356 153.721 63.7653 147.54C65.8828 145.139 70.285 141.728 74.5419 138.435C80.1256 134.11 83.5879 131.365 83.8764 130.01C84.118 129.408 83.8287 128.458 83.191 127.781C82.5017 127.05 81.5966 126.826 80.6653 127.178C77.1617 128.887 73.6354 131.577 70.2289 134.177L67.6519 136.129C65.5448 137.418 64.3116 138.032 62.1878 138.116C61.9982 138.086 61.8072 138.067 61.6155 138.059C60.9618 138.028 60.3393 137.991 59.9217 137.231C58.9257 129.248 79.5125 111.568 85.8704 106.318C89.2404 103.444 94.8433 99.9343 97.2264 98.7854C97.427 98.6943 97.6068 98.563 97.7547 98.3994C97.9025 98.2359 98.0152 98.0438 98.0859 97.8349C98.2898 97.2226 98.1451 96.4526 97.6507 95.4821L97.6319 95.4501L97.6082 95.4153C96.781 94.3384 95.4606 94.7581 94.5886 95.0329C94.4823 95.0655 94.3841 95.098 94.2695 95.1308C83.3808 98.853 54.2216 125.302 54.7035 137.734C54.7861 139.416 55.3059 140.688 56.2481 141.504C57.6518 142.722 59.7956 142.767 61.6479 142.637C53.5279 151.015 44.5121 160.5 41.2153 172.178L41.21 172.205L41.0899 172.899C40.9285 173.832 40.7905 174.636 40.7574 175.38C40.6515 177.639 41.0485 179.366 41.9404 180.516C43.423 182.374 45.6566 182.064 48.5823 181.014C50.1357 180.329 51.6242 179.347 52.513 178.759L52.7573 178.597C54.538 177.517 58.7318 173.858 64.0405 169.227C76.7927 158.098 98.1375 139.472 102.909 142.747C103.84 143.401 102.905 145.919 102.006 148.354C100.543 152.3 98.7239 157.212 102.631 159.042C103.191 159.305 103.681 159.287 104.498 159.161L104.54 159.154L104.579 159.139C105.537 158.794 105.794 158.509 106.238 157.637C107.386 155.399 107.839 151.878 107.518 147.712C109.453 142.461 113.85 132.339 116.919 131.142Z" fill="#FBA9F3"/>
<path fill-rule="evenodd" clip-rule="evenodd" d="M206.763 62.5436L206.775 62.5733C207.183 63.4517 207.933 64.3187 208.29 64.5524L208.335 64.5834L208.383 64.5995C209.153 64.8664 209.676 64.7714 210.186 64.2726L210.203 64.2579L210.215 64.2423C210.49 63.9176 210.609 63.1201 210.79 61.5015C210.793 61.513 210.835 61.1931 210.835 61.1931C210.904 60.6973 210.975 60.1904 211.078 59.6771C211.429 57.9843 211.921 56.2844 212.189 55.3687C212.362 54.7709 212.39 54.6668 212.395 54.577L212.401 54.5384L212.395 54.5009C212.24 53.1245 210.731 52.7262 209.373 52.8143L209.333 52.8169L209.292 52.8277C208.66 52.9973 208.316 53.3198 208.037 53.9892C207.224 55.5571 206.668 57.3584 206.342 59.5016L206.331 59.5519L206.336 59.6019C206.349 59.7714 206.355 59.9406 206.365 60.1149C206.385 60.7105 206.407 61.3837 206.752 62.5196L206.763 62.5436ZM324.282 61.387C323.875 60.3229 322.803 59.4825 321.522 59.941L306.457 66.4739C296.825 70.6825 287.727 74.6576 277.879 78.6277L277.792 78.6634C276.824 79.0502 275.823 79.4563 274.835 79.8261C274.202 80.0719 273.647 80.0517 273.179 79.7634C272.495 79.3355 272.006 78.308 271.858 77.002C272.564 75.8476 273.553 74.4755 274.603 73.0233L276.14 70.8788C280.68 64.4187 284.624 57.1248 279.402 51.9923C278.708 51.3907 277.908 50.9247 277.042 50.6183C274.501 49.9021 272.372 50.5877 270.71 52.6566C266.314 58.1457 266.339 72.264 267.325 76.1813L265.191 78.7657C260.69 84.2315 257.435 88.182 256.476 87.4019C255.818 86.8497 255.188 83.8845 254.309 79.7821C253.827 77.5159 253.224 74.6978 252.451 71.4663L252.437 71.4164L252.26 70.929C251.978 70.1483 251.862 69.8831 251.085 68.9698L251.068 68.9537L251.056 68.9385C250.09 68.0201 249.018 67.6387 247.878 67.8023C246.231 68.0398 244.551 69.4427 243.277 71.6546C241.269 75.2445 239.418 80.5353 237.784 85.2081C236.02 90.2554 234.35 95.018 232.883 96.5698C232.44 97.0423 232.077 97.2075 231.964 97.1824C231.941 97.176 231.877 97.1129 231.821 96.9036C231.643 95.1179 231.669 92.7999 231.693 90.3425C231.755 84.8501 231.82 79.1695 229.771 77.099C229.519 76.836 229.216 76.6278 228.881 76.4875C228.545 76.3472 228.185 76.2778 227.821 76.2837C224.589 76.3267 221.775 81.8137 218.006 91.2854L216.936 94.0045C214.58 100.005 212.362 105.676 210.242 108.149C209.865 108.676 209.558 108.818 209.449 108.788C209.38 108.769 209.293 108.628 209.28 108.428C209.177 106.976 209.37 104.144 209.585 100.857C210.14 92.5556 210.448 86.0629 209.006 84.2967C208.216 83.2944 207.835 83.0385 206.65 83.1584C204.68 83.3034 201.956 87.2311 197.236 96.7109L193.815 103.768C190.856 109.942 188.056 115.781 186.138 118.289C186.019 118.423 185.878 118.535 185.721 118.621C185.69 118.524 185.674 118.423 185.674 118.321C185.985 114.295 186.091 110.709 186.197 107.238C186.296 103.947 186.399 100.543 186.671 96.7472C189.477 92.5891 192.074 88.293 194.452 83.875C200.482 72.7068 202.554 64.9059 200.601 60.6859C199.799 58.95 198.315 57.8435 196.207 57.3959C193.042 56.6388 190.345 58.5219 188.198 62.9888C184.493 70.7127 183.183 84.3902 182.483 91.7369L182.201 94.5495C180.027 97.7927 176.903 101.784 174.14 105.313C170.665 109.753 167.919 113.259 167.525 114.574C167.246 115.336 167.849 116.473 168.573 116.975C169.157 117.38 169.804 117.369 170.3 116.942C171.542 115.879 173.996 112.655 176.591 109.243C178.549 106.677 180.555 104.037 182.009 102.39C181.981 103.494 181.852 104.979 181.707 106.638C181.11 113.533 180.289 122.982 184.864 124.131L184.892 124.14L184.917 124.142C187.824 124.505 192.064 118.331 199.553 102.85L201.78 98.2136C203.181 95.2764 204.287 92.9592 204.891 91.9782C204.946 91.8997 204.982 91.8798 205.019 91.8719C205.024 91.9159 205.024 91.9603 205.017 92.0041L204.909 93.9715C204.399 102.899 204.045 111.769 205.775 113.55C206.804 114.637 207.944 115.07 209.164 114.844C212.454 114.232 216.178 108.777 220.557 98.1583C221.521 95.8421 222.428 93.5249 223.225 91.4838C224.425 88.4111 225.464 85.7537 226.207 84.3755L226.252 84.2769C226.272 84.3005 226.287 84.3269 226.298 84.3552C226.689 85.2773 226.68 87.7739 226.667 90.4196C226.644 95.4139 226.617 101.08 228.819 102.945C229.441 103.474 230.204 103.667 231.087 103.515C232.419 103.271 233.643 102.698 234.821 101.763C235.579 101.163 235.767 100.89 235.989 100.573L236.115 100.4C237.967 97.9897 241.249 89.8481 243.889 83.3067C245.405 79.5503 246.711 76.3071 247.39 75.0201C247.76 74.392 247.954 74.3093 247.992 74.2971C248.483 74.4967 249.006 77.4083 249.389 79.5407C250.106 83.5363 251.001 88.5129 253.115 90.9141C254.185 92.0308 255.371 92.5607 256.647 92.4967C260.041 92.3218 263.446 87.9503 266.452 84.0931C267.235 83.0869 267.979 82.1364 268.689 81.2958C269.708 83.5396 271.575 84.8707 273.899 84.9724C274.537 85.0298 276.088 84.5712 279.257 83.3967C291.348 78.8586 320.409 65.7233 323.557 63.8612L323.505 63.8876C324.367 63.531 324.699 62.4769 324.282 61.387ZM190.611 69.3654C191.573 66.2884 192.552 64.0322 193.446 62.8212C193.806 62.2599 194.611 62.2663 194.789 62.3009C195.04 62.3354 195.279 62.4318 195.483 62.5813C195.688 62.7308 195.853 62.9288 195.962 63.1575C196.993 65.1779 195.559 70.614 192.134 77.7012C190.233 81.6799 188.301 84.8854 187.417 86.007C187.324 83.9248 188.53 76.0904 190.611 69.3654ZM272.761 58.0316C273.535 56.2643 274.521 55.4795 275.769 55.641C276.005 55.6648 276.231 55.7445 276.43 55.8736C277.446 56.9266 276.494 60.7314 274.049 65.3705C272.955 67.4806 271.893 69.0863 271.162 69.9552L271.158 69.8964C271.221 67.1241 271.357 61.3609 272.761 58.0316ZM157.041 110.562C156.319 110.599 155.613 110.791 154.972 111.124C154.11 111.528 153.806 111.875 153.056 112.827C152.385 113.699 151.787 114.625 151.269 115.596C148.653 120.341 146.211 125.496 143.627 130.952C142.409 133.538 141.173 136.116 139.919 138.685C140.173 135.997 140.258 133.754 140.196 131.628L140.193 131.6L140.191 131.576C140.094 130.907 139.588 130.431 138.872 130.331C138.079 130.222 137.057 130.593 136.647 131.509L136.633 131.542L136.624 131.577C135.854 134.557 133.699 139.158 132.575 139.764C130.208 140.88 129.558 139.897 129.342 139.576C127.332 136.547 131.109 125.639 134.592 122.503C136.033 121.206 136.76 121.787 136.986 121.971C137.272 122.341 137.308 124.778 137.325 125.953C137.343 126.863 137.349 127.578 137.412 127.911C137.546 128.848 138.312 129.437 139.322 129.385C139.972 129.341 140.582 129.053 141.03 128.579C141.478 128.106 141.731 127.48 141.739 126.828C142.246 121.909 140.541 118.499 138.614 117.676C135.369 116.122 131.715 117.543 128.587 121.573C123.614 127.986 121.434 139.201 125.966 144.613C127.777 146.645 131.303 146.274 134.896 143.739L134.335 148.491L129.209 158.863C129.209 158.863 126.641 164.072 126.642 164.076L123.141 171.264L123.13 171.292L123.12 171.315L122.343 173.496C120.436 178.786 118.636 183.783 121.613 188.088C123.161 190.503 125.936 191.239 129.451 190.164C131.86 189.298 132.441 188.55 133.422 187.079C136.961 181.964 137.253 172.014 137.486 164.025C137.578 160.998 137.662 158.137 137.92 156.039L138.082 154.148C138.181 152.983 138.273 151.878 138.407 150.62C140.388 146.906 142.259 143.102 144.066 139.418C145.781 135.891 147.547 132.39 149.364 128.915C149.717 131.199 150.12 133.785 152.095 135.618C154.613 137.979 157.968 137.312 160.172 135.604C164.945 131.934 166.19 122.171 164.076 116.223C162.755 112.484 160.258 110.475 157.041 110.562ZM131.922 173.448C131.681 175.723 131.454 177.875 130.918 180.14C130.563 181.729 130.059 183.28 129.41 184.773C128.758 185.707 127.44 186.097 126.584 185.923C126.237 185.856 125.798 185.662 125.69 185.126C124.379 180.236 126.885 174.053 128.884 169.828C129.698 168.137 130.544 166.461 131.423 164.803C131.903 163.887 132.364 163.004 132.787 162.16C132.678 164.964 132.499 167.765 132.25 170.56C132.123 171.543 132.02 172.51 131.922 173.448ZM159.355 130.038C159.113 130.414 158.832 130.763 158.516 131.078C157.582 132.02 155.904 132.41 154.776 131.944L154.746 131.932L154.711 131.925C154.194 131.798 153.852 131.198 153.658 130.719C152.345 127.499 153.211 120.052 155.283 116.743C155.88 115.787 156.556 115.217 157.233 115.099C157.794 114.996 158.399 115.192 159.028 115.684C161.065 117.264 161.992 125.887 159.355 130.038ZM116.919 131.142C117.287 130.997 117.611 131 117.905 131.156C118.229 131.306 118.527 131.636 118.848 132.198L118.864 132.226L118.885 132.25C119.232 132.692 119.626 133.105 120.166 133.156C120.523 133.192 120.882 133.052 121.241 132.742C121.96 132.095 122.067 130.631 121.513 129.016C120.927 127.305 119.553 125.414 117.457 125.263L117.413 125.259L117.37 125.262C117.114 125.294 116.861 125.346 116.612 125.417C113.119 126.567 110.437 130.926 107.847 135.146C107.089 136.377 106.308 137.641 105.523 138.803L104.982 138.173L104.964 138.149L104.939 138.127C104.24 137.513 103.612 137.385 102.883 137.379C95.7366 137.316 78.8659 151.097 65.3049 162.17C56.9075 169.021 49.6608 174.943 46.7093 176.003C46.146 176.218 45.9676 176.151 45.9149 176.115C45.8618 176.078 45.7006 175.891 45.7529 175.058C45.7137 168.782 58.3356 153.721 63.7653 147.54C65.8828 145.139 70.285 141.728 74.5419 138.435C80.1256 134.11 83.5879 131.365 83.8764 130.01C84.118 129.408 83.8287 128.458 83.191 127.781C82.5017 127.05 81.5966 126.826 80.6653 127.178C77.1617 128.887 73.6354 131.577 70.2289 134.177L67.6519 136.129C65.5448 137.418 64.3116 138.032 62.1878 138.116C61.9982 138.086 61.8072 138.067 61.6155 138.059C60.9618 138.028 60.3393 137.991 59.9217 137.231C58.9257 129.248 79.5125 111.568 85.8704 106.318C89.2404 103.444 94.8433 99.9343 97.2264 98.7854C97.427 98.6943 97.6068 98.563 97.7547 98.3994C97.9025 98.2359 98.0152 98.0438 98.0859 97.8349C98.2898 97.2226 98.1451 96.4526 97.6507 95.4821L97.6319 95.4501L97.6082 95.4153C96.781 94.3384 95.4606 94.7581 94.5886 95.0329C94.4823 95.0655 94.3841 95.098 94.2695 95.1308C83.3808 98.853 54.2216 125.302 54.7035 137.734C54.7861 139.416 55.3059 140.688 56.2481 141.504C57.6518 142.722 59.7956 142.767 61.6479 142.637C53.5279 151.015 44.5121 160.5 41.2153 172.178L41.21 172.205L41.0899 172.899C40.9285 173.832 40.7905 174.636 40.7574 175.38C40.6515 177.639 41.0485 179.366 41.9404 180.516C43.423 182.374 45.6566 182.064 48.5823 181.014C50.1357 180.329 51.6242 179.347 52.513 178.759L52.7573 178.597C54.538 177.517 58.7318 173.858 64.0405 169.227C76.7927 158.098 98.1375 139.472 102.909 142.747C103.84 143.401 102.905 145.919 102.006 148.354C100.543 152.3 98.7239 157.212 102.631 159.042C103.191 159.305 103.681 159.287 104.498 159.161L104.54 159.154L104.579 159.139C105.537 158.794 105.794 158.509 106.238 157.637C107.386 155.399 107.839 151.878 107.518 147.712C109.453 142.461 113.85 132.339 116.919 131.142Z" stroke="#BF228D" stroke-width="2"/>
</g>
<path d="M57.8542 133.325L57.3777 133.173V133.173L57.8542 133.325ZM57.8545 139.825L58.2193 139.483V139.483L57.8545 139.825ZM63.3536 140.325L63.4243 140.82V140.82L63.3536 140.325ZM80.3506 130.326L80.0732 129.91V129.91L80.3506 130.326ZM54.8555 153.324L54.4563 153.023V153.023L54.8555 153.324ZM43.858 172.324L43.4072 172.107L43.4022 172.118L43.3976 172.129L43.858 172.324ZM43.8583 178.824L44.0678 178.37V178.37L43.8583 178.824ZM46.8578 178.824L47.0159 179.298H47.0159L46.8578 178.824ZM94.6244 97.7427C94.8542 97.5895 94.9163 97.2791 94.7631 97.0493C94.61 96.8196 94.2995 96.7575 94.0698 96.9106L94.3471 97.3267L94.6244 97.7427ZM72.8511 114.326L72.4929 113.977V113.977L72.8511 114.326ZM95.3489 142.326L95.1008 141.892V141.892L95.3489 142.326ZM104.347 140.827L104.09 141.255V141.255L104.347 140.827ZM105.347 145.827L105.833 145.948V145.948L105.347 145.827ZM103.348 156.326L103.839 156.424V156.424L103.348 156.326ZM119.397 130.551C119.521 130.798 119.821 130.898 120.068 130.775C120.315 130.651 120.415 130.351 120.292 130.104L119.845 130.327L119.397 130.551ZM74.0735 158.097L73.7714 157.698L73.756 157.71L73.7417 157.723L74.0735 158.097ZM109.346 137.327L109.801 137.536V137.536L109.346 137.327ZM106.347 144.327L105.872 144.171L105.868 144.183L106.347 144.327ZM137.361 119.323L137.197 119.795L137.361 119.323ZM127.361 129.823L127.831 129.995V129.995L127.361 129.823ZM127.361 141.823L127.752 141.511V141.511L127.361 141.823ZM130.361 143.323L130.353 143.823V143.823L130.361 143.323ZM136.361 149.323L136.812 149.54L136.847 149.467L136.857 149.387L136.361 149.323ZM129.861 162.823L130.292 163.077L130.302 163.059L130.312 163.04L129.861 162.823ZM122.361 180.323L122.855 180.399V180.399L122.361 180.323ZM124.861 187.823L124.607 188.254V188.254L124.861 187.823ZM129.361 187.823L129.206 187.348V187.348L129.361 187.823ZM132.361 184.323L132.808 184.547V184.547L132.361 184.323ZM134.361 176.823L133.863 176.773V176.773L134.361 176.823ZM135.361 152.323L134.912 152.102L134.861 152.207V152.323L135.361 152.323ZM150.861 120.823L150.422 120.584L150.417 120.593L150.412 120.602L150.861 120.823ZM153.861 115.323L153.434 115.062L153.428 115.073L153.422 115.084L153.861 115.323ZM157.361 112.823L157.37 112.323V112.323L157.361 112.823ZM161.861 116.323L161.421 116.56V116.56L161.861 116.323ZM163.361 122.323L163.861 122.317V122.317L163.361 122.323ZM161.861 129.823L162.316 130.031V130.031L161.861 129.823ZM158.361 133.823L158.638 134.239V134.239L158.361 133.823ZM154.861 134.823L154.719 135.302V135.302L154.861 134.823ZM152.361 132.823L151.927 133.071V133.071L152.361 132.823ZM131.361 122.323L131.761 122.623V122.623L131.361 122.323ZM169.458 114.526C169.294 114.748 169.342 115.061 169.564 115.225C169.786 115.389 170.099 115.342 170.263 115.12L169.861 114.823L169.458 114.526ZM185.361 93.8226L185.763 94.1196L185.768 94.1128L185.773 94.1059L185.361 93.8226ZM198.861 63.3229L199.349 63.2144V63.2144L198.861 63.3229ZM195.361 59.3229L195.309 59.8202V59.8202L195.361 59.3229ZM191.861 60.8229L192.277 61.1002V61.1002L191.861 60.8229ZM188.361 69.3229L187.88 69.1855L188.361 69.3229ZM185.861 79.8229L185.371 79.7218L185.365 79.7509L185.362 79.7805L185.861 79.8229ZM183.861 103.323L183.362 103.28L183.362 103.29L183.361 103.3L183.861 103.323ZM185.361 121.323L185.342 121.823V121.823L185.361 121.323ZM189.361 117.323L188.939 117.054V117.054L189.361 117.323ZM201.361 93.3229L201.815 93.5316L201.823 93.5151L201.829 93.4981L201.361 93.3229ZM204.361 88.3229L204.032 87.9462V87.9462L204.361 88.3229ZM206.861 108.323L207.36 108.294V108.294L206.861 108.323ZM208.361 111.323L208.189 111.793V111.793L208.361 111.323ZM212.361 109.323L212.777 109.6V109.6L212.361 109.323ZM223.861 84.3229L223.429 84.071V84.071L223.861 84.3229ZM225.861 80.8229L226.105 81.2591L226.105 81.2591L225.861 80.8229ZM232.861 99.8229L233.027 100.294V100.294L232.861 99.8229ZM235.361 96.8229L234.904 96.6198L234.898 96.6333L234.893 96.6471L235.361 96.8229ZM246.861 71.3229L247.064 71.7798V71.7798L246.861 71.3229ZM256.361 89.8229L256.463 89.3334V89.3334L256.361 89.8229ZM258.861 89.3229L258.531 88.9466V88.9466L258.861 89.3229ZM267.861 78.8229L267.467 78.514L267.46 78.523L267.454 78.5323L267.861 78.8229ZM276.361 66.8229L275.932 66.5656V66.5656L276.361 66.8229ZM277.861 53.8228L277.588 54.242L277.588 54.2421L277.861 53.8228ZM277.801 53.7837L278.073 53.3645V53.3645L277.801 53.7837ZM274.861 52.8229L274.949 53.315V53.315L274.861 52.8229ZM271.861 54.8228L271.432 54.5656V54.5656L271.861 54.8228ZM269.361 62.3229L269.849 62.4314V62.4314L269.361 62.3229ZM269.361 73.8228L269.858 73.7676V73.7676L269.361 73.8228ZM270.861 80.8229L271.225 80.4806V80.4806L270.861 80.8229ZM275.861 82.3229L276.05 82.7857V82.7857L275.861 82.3229ZM322.063 62.7801C322.316 62.6682 322.43 62.3729 322.318 62.1204C322.206 61.8679 321.911 61.7539 321.658 61.8657L321.861 62.3229L322.063 62.7801ZM228.861 90.3229L228.361 90.3055V90.3055L228.861 90.3229ZM57.8542 133.325L57.3777 133.173C56.9097 134.645 56.4839 135.911 56.3973 137.02C56.3065 138.181 56.5827 139.199 57.4897 140.167L57.8545 139.825L58.2193 139.483C57.5238 138.741 57.323 138.009 57.3942 137.098C57.4696 136.134 57.8449 135.004 58.3307 133.476L57.8542 133.325ZM57.8545 139.825L57.4897 140.167C57.8494 140.55 58.1912 140.841 58.5713 141.033C58.9603 141.228 59.3562 141.304 59.7986 141.307C60.2278 141.31 60.715 141.246 61.2872 141.156C61.8717 141.064 62.5531 140.944 63.4243 140.82L63.3536 140.325L63.2829 139.83C62.4044 139.955 61.6938 140.08 61.132 140.168C60.5578 140.258 60.1442 140.31 59.8063 140.307C59.4815 140.305 59.2439 140.252 59.0209 140.139C58.7891 140.023 58.5405 139.825 58.2193 139.483L57.8545 139.825ZM63.3536 140.325L63.4243 140.82C64.3952 140.681 65.7774 140.078 67.2975 139.275C68.8379 138.461 70.5848 137.406 72.3081 136.31C75.749 134.12 79.1456 131.73 80.628 130.742L80.3506 130.326L80.0732 129.91C78.5562 130.921 75.204 133.281 71.7712 135.466C70.0575 136.557 68.3364 137.595 66.8304 138.391C65.3041 139.197 64.0618 139.719 63.2829 139.83L63.3536 140.325ZM80.3506 130.326L80.628 130.742C80.7212 130.68 80.7885 130.635 80.833 130.607C80.8558 130.592 80.8686 130.585 80.8741 130.581C80.8774 130.58 80.8735 130.582 80.8652 130.586C80.8612 130.588 80.8513 130.593 80.8376 130.599C80.8302 130.602 80.7932 130.618 80.7423 130.628C80.7122 130.633 80.6308 130.636 80.5801 130.632C80.4939 130.612 80.3054 130.5 80.2224 130.398C80.1714 130.286 80.1515 130.087 80.1652 130.011C80.1784 129.968 80.2076 129.903 80.221 129.879C80.2454 129.839 80.27 129.812 80.2755 129.806C80.2848 129.796 80.2923 129.788 80.2953 129.785C80.3043 129.777 80.3063 129.776 80.2898 129.789C80.2626 129.811 80.2146 129.849 80.143 129.904C79.8572 130.123 79.28 130.555 78.466 131.171C76.8448 132.399 74.3162 134.337 71.4404 136.672C65.7013 141.333 58.5339 147.617 54.4563 153.023L54.8555 153.324L55.2547 153.625C59.2512 148.326 66.3311 142.11 72.0709 137.448C74.9345 135.123 77.4533 133.193 79.0697 131.969C79.8745 131.359 80.4635 130.919 80.7519 130.697C80.8238 130.642 80.8824 130.596 80.9225 130.564C80.9397 130.55 80.9655 130.528 80.9883 130.506C80.9949 130.5 81.0051 130.49 81.0167 130.477C81.0243 130.469 81.0504 130.44 81.0758 130.398C81.0896 130.374 81.1191 130.308 81.1325 130.265C81.1463 130.188 81.1264 129.989 81.0752 129.876C80.992 129.773 80.8032 129.661 80.7165 129.641C80.6653 129.637 80.5832 129.641 80.5523 129.646C80.4997 129.656 80.4604 129.673 80.45 129.677C80.4334 129.684 80.4199 129.691 80.4116 129.695C80.3949 129.703 80.3798 129.712 80.3693 129.718C80.3472 129.731 80.3218 129.747 80.2956 129.764C80.2419 129.798 80.1675 129.847 80.0732 129.91L80.3506 130.326ZM54.8555 153.324L54.4563 153.023C51.8514 156.477 49.0874 161.255 46.9811 165.153C45.9263 167.105 45.0332 168.843 44.4039 170.093C44.0892 170.718 43.8403 171.221 43.6699 171.568C43.5848 171.741 43.5192 171.876 43.4749 171.967C43.4528 172.013 43.4359 172.048 43.4246 172.071C43.4189 172.083 43.4146 172.092 43.4117 172.098C43.4103 172.101 43.4092 172.103 43.4084 172.105C43.408 172.106 43.4078 172.106 43.4076 172.107C43.4075 172.107 43.4074 172.107 43.4073 172.107C43.4073 172.107 43.4072 172.107 43.858 172.324C44.3087 172.54 44.3087 172.54 44.3088 172.54C44.3088 172.54 44.3089 172.54 44.3089 172.54C44.3091 172.539 44.3094 172.539 44.3097 172.538C44.3104 172.537 44.3114 172.535 44.3128 172.532C44.3155 172.526 44.3197 172.517 44.3252 172.506C44.3362 172.483 44.3528 172.449 44.3746 172.404C44.4183 172.314 44.4832 172.181 44.5677 172.008C44.7367 171.664 44.984 171.164 45.297 170.543C45.9231 169.299 46.8116 167.57 47.8609 165.628C49.9629 161.738 52.6976 157.016 55.2547 153.625L54.8555 153.324ZM43.858 172.324C43.3976 172.129 43.3976 172.129 43.3975 172.129C43.3975 172.129 43.3974 172.129 43.3974 172.129C43.3972 172.13 43.3971 172.13 43.3969 172.13C43.3965 172.131 43.396 172.133 43.3953 172.134C43.394 172.137 43.3921 172.142 43.3898 172.147C43.385 172.159 43.3782 172.175 43.3696 172.197C43.3523 172.239 43.3277 172.3 43.2974 172.378C43.2368 172.535 43.1534 172.757 43.0609 173.028C42.8765 173.567 42.6529 174.303 42.503 175.08C42.3546 175.849 42.2706 176.696 42.3926 177.44C42.5157 178.191 42.8662 178.916 43.6487 179.278L43.8583 178.824L44.0678 178.37C43.6981 178.199 43.4724 177.846 43.3794 177.278C43.2854 176.704 43.3453 175.993 43.4849 175.27C43.623 174.554 43.8314 173.865 44.0071 173.352C44.0945 173.096 44.1732 172.886 44.2296 172.74C44.2578 172.668 44.2804 172.611 44.2958 172.574C44.3035 172.555 44.3093 172.541 44.3131 172.531C44.3151 172.527 44.3165 172.523 44.3173 172.521C44.3178 172.52 44.3181 172.519 44.3183 172.519C44.3183 172.519 44.3184 172.519 44.3184 172.519C44.3184 172.519 44.3184 172.519 44.3184 172.519C44.3184 172.519 44.3183 172.519 43.858 172.324ZM43.8583 178.824L43.6487 179.278C44.1996 179.532 44.6541 179.694 45.1931 179.695C45.7126 179.697 46.266 179.548 47.0159 179.298L46.8578 178.824L46.6997 178.349C45.9498 178.599 45.5352 178.696 45.1958 178.695C44.8759 178.694 44.5805 178.606 44.0678 178.37L43.8583 178.824ZM94.3471 97.3267C94.0698 96.9106 94.0697 96.9107 94.0695 96.9108C94.0694 96.9108 94.0692 96.911 94.069 96.9111C94.0685 96.9114 94.0679 96.9119 94.067 96.9125C94.0652 96.9137 94.0626 96.9154 94.0591 96.9177C94.0521 96.9224 94.0418 96.9293 94.0282 96.9384C94.0011 96.9566 93.9608 96.9836 93.908 97.0191C93.8024 97.0902 93.6468 97.1952 93.4463 97.3314C93.0454 97.6039 92.4647 98.0015 91.7449 98.5021C90.3055 99.5035 88.3091 100.918 86.0803 102.571C81.629 105.872 76.2279 110.141 72.4929 113.977L72.8511 114.326L73.2093 114.674C76.8852 110.9 82.232 106.67 86.676 103.374C88.8949 101.728 90.8829 100.32 92.316 99.3231C93.0325 98.8246 93.6102 98.4292 94.0084 98.1585C94.2076 98.0231 94.3618 97.919 94.4662 97.8488C94.5184 97.8137 94.5581 97.7871 94.5846 97.7693C94.5979 97.7604 94.608 97.7537 94.6146 97.7492C94.6179 97.747 94.6204 97.7454 94.6221 97.7443C94.6229 97.7437 94.6235 97.7433 94.6239 97.7431C94.6241 97.7429 94.6242 97.7428 94.6243 97.7428C94.6244 97.7427 94.6244 97.7427 94.3471 97.3267ZM72.8511 114.326L72.4929 113.977C69.0611 117.501 65.5391 121.513 62.7535 125.023C61.3608 126.778 60.1484 128.413 59.222 129.801C58.305 131.175 57.6396 132.35 57.3777 133.173L57.8542 133.325L58.3307 133.476C58.5458 132.8 59.1383 131.728 60.0538 130.356C60.96 128.998 62.1545 127.387 63.5368 125.645C66.301 122.162 69.8006 118.175 73.2093 114.674L72.8511 114.326ZM95.3489 142.326L95.597 142.76C99.1097 140.753 101.861 139.918 104.09 141.255L104.347 140.827L104.605 140.398C101.834 138.735 98.5868 139.9 95.1008 141.892L95.3489 142.326ZM104.347 140.827L104.09 141.255C104.674 141.606 105.014 141.933 105.21 142.233C105.4 142.524 105.472 142.817 105.472 143.139C105.472 143.474 105.394 143.842 105.272 144.277C105.158 144.686 104.988 145.202 104.862 145.705L105.347 145.827L105.833 145.948C105.957 145.451 106.1 145.03 106.235 144.548C106.363 144.093 106.472 143.617 106.472 143.139C106.472 142.648 106.357 142.16 106.047 141.686C105.743 141.22 105.271 140.798 104.605 140.398L104.347 140.827ZM105.347 145.827L104.862 145.705C104.39 147.596 103.475 153.024 102.957 155.721L103.448 155.815L103.939 155.909C104.469 153.151 105.368 147.805 105.833 145.948L105.347 145.827ZM103.448 155.815L102.957 155.721C102.922 155.903 102.889 156.073 102.858 156.228L103.348 156.326L103.839 156.424C103.87 156.266 103.904 156.093 103.939 155.909L103.448 155.815ZM117.845 127.827L117.621 128.274C117.791 128.36 117.992 128.527 118.209 128.765C118.421 128.998 118.624 129.273 118.804 129.542C118.982 129.81 119.132 130.064 119.236 130.251C119.289 130.345 119.33 130.421 119.357 130.473C119.371 130.499 119.381 130.52 119.388 130.533C119.391 130.539 119.394 130.544 119.396 130.547C119.396 130.549 119.397 130.55 119.397 130.551C119.397 130.551 119.397 130.551 119.397 130.551C119.397 130.551 119.397 130.551 119.397 130.551C119.397 130.551 119.397 130.551 119.397 130.551C119.397 130.551 119.397 130.551 119.845 130.327C120.292 130.104 120.292 130.104 120.292 130.104C120.292 130.104 120.292 130.103 120.292 130.103C120.292 130.103 120.291 130.103 120.291 130.103C120.291 130.102 120.291 130.102 120.291 130.101C120.29 130.1 120.289 130.098 120.288 130.096C120.286 130.091 120.282 130.085 120.278 130.077C120.27 130.06 120.258 130.037 120.242 130.008C120.211 129.949 120.166 129.865 120.109 129.763C119.995 129.56 119.832 129.282 119.636 128.988C119.44 128.694 119.206 128.375 118.949 128.093C118.697 127.815 118.398 127.545 118.068 127.38L117.845 127.827ZM46.8578 178.824L47.0159 179.298C47.2626 179.216 47.6671 178.999 48.1708 178.701C48.6913 178.392 49.3614 177.968 50.1599 177.441C51.7575 176.385 53.8804 174.904 56.3676 173.073C61.3423 169.412 67.7833 164.346 74.4053 158.471L74.0735 158.097L73.7417 157.723C67.1455 163.575 60.7286 168.622 55.7749 172.268C53.298 174.091 51.1891 175.562 49.6085 176.606C48.8178 177.129 48.1623 177.543 47.6606 177.841C47.1421 178.148 46.828 178.307 46.6997 178.349L46.8578 178.824ZM74.0735 158.097L74.3757 158.495C79.4762 154.627 84.4054 150.907 88.2531 148.044C92.1197 145.166 94.8546 143.185 95.597 142.76L95.3489 142.326L95.1008 141.892C94.2908 142.355 91.4887 144.39 87.6562 147.241C83.8047 150.107 78.8725 153.829 73.7714 157.698L74.0735 158.097ZM109.346 137.327L109.801 137.536C111.264 134.352 113.105 131.901 114.69 130.315C115.485 129.521 116.204 128.954 116.768 128.621C117.052 128.453 117.279 128.354 117.446 128.309C117.629 128.259 117.661 128.294 117.621 128.274L117.845 127.827L118.068 127.38C117.779 127.235 117.451 127.271 117.184 127.344C116.9 127.421 116.587 127.566 116.259 127.76C115.601 128.149 114.816 128.775 113.983 129.608C112.314 131.278 110.405 133.827 108.892 137.118L109.346 137.327ZM103.348 156.326L102.858 156.228C102.843 156.301 102.839 156.319 102.842 156.31C102.842 156.308 102.844 156.301 102.847 156.291C102.848 156.287 102.851 156.278 102.855 156.266C102.856 156.262 102.869 156.225 102.894 156.183C102.899 156.174 102.944 156.092 103.039 156.026C103.098 155.99 103.259 155.94 103.359 155.937C103.468 155.957 103.642 156.049 103.704 156.109C103.801 156.221 103.817 156.344 103.818 156.35C103.824 156.384 103.825 156.41 103.825 156.422C103.826 156.446 103.824 156.465 103.824 156.471C103.823 156.479 103.823 156.486 103.822 156.489C103.821 156.506 103.818 156.52 103.82 156.511C103.82 156.506 103.823 156.493 103.827 156.471C103.843 156.385 103.88 156.195 103.938 155.915L103.448 155.815L102.958 155.714C102.9 155.997 102.862 156.192 102.844 156.285C102.84 156.308 102.836 156.327 102.834 156.341C102.834 156.342 102.83 156.361 102.828 156.381C102.828 156.385 102.827 156.392 102.827 156.4C102.826 156.406 102.825 156.425 102.825 156.45C102.826 156.461 102.827 156.488 102.833 156.522C102.834 156.528 102.85 156.65 102.947 156.763C103.009 156.823 103.183 156.915 103.291 156.935C103.391 156.932 103.552 156.881 103.611 156.846C103.706 156.78 103.752 156.697 103.757 156.689C103.782 156.646 103.794 156.609 103.796 156.605C103.8 156.594 103.803 156.584 103.804 156.579C103.807 156.569 103.809 156.561 103.81 156.558C103.817 156.534 103.827 156.48 103.839 156.424L103.348 156.326ZM103.448 155.815L103.938 155.915C104.277 154.263 105.308 149.518 106.826 144.471L106.347 144.327L105.868 144.183C104.339 149.27 103.301 154.047 102.958 155.714L103.448 155.815ZM106.347 144.327L106.823 144.482C107.628 142.013 108.736 139.851 109.801 137.536L109.346 137.327L108.892 137.118C107.85 139.385 106.701 141.63 105.872 144.171L106.347 144.327ZM139.361 126.823C139.857 126.889 139.857 126.888 139.857 126.888C139.857 126.888 139.857 126.888 139.857 126.888C139.857 126.888 139.857 126.887 139.857 126.887C139.857 126.885 139.857 126.884 139.858 126.882C139.858 126.878 139.859 126.873 139.86 126.866C139.861 126.853 139.864 126.833 139.867 126.808C139.873 126.757 139.881 126.684 139.89 126.591C139.909 126.405 139.932 126.14 139.95 125.82C139.988 125.18 140.007 124.311 139.933 123.405C139.86 122.505 139.693 121.538 139.341 120.717C138.989 119.895 138.423 119.162 137.525 118.85L137.361 119.323L137.197 119.795C137.731 119.98 138.131 120.433 138.422 121.111C138.714 121.79 138.868 122.636 138.937 123.486C139.005 124.331 138.988 125.151 138.952 125.762C138.935 126.067 138.913 126.318 138.895 126.491C138.886 126.578 138.879 126.646 138.874 126.691C138.871 126.714 138.869 126.731 138.867 126.742C138.867 126.747 138.866 126.752 138.866 126.754C138.866 126.755 138.866 126.756 138.866 126.757C138.865 126.757 138.865 126.757 138.865 126.757C138.865 126.757 138.865 126.757 138.865 126.757C138.865 126.757 138.865 126.757 139.361 126.823ZM127.361 129.823L126.891 129.652C126.007 132.075 125.492 134.506 125.458 136.666C125.425 138.818 125.87 140.759 126.971 142.135L127.361 141.823L127.752 141.511C126.853 140.387 126.427 138.712 126.458 136.682C126.49 134.659 126.974 132.34 127.831 129.995L127.361 129.823ZM127.361 141.823L126.971 142.135C127.435 142.716 127.883 143.147 128.436 143.427C128.99 143.707 129.602 143.81 130.353 143.823L130.361 143.323L130.37 142.823C129.699 142.812 129.255 142.72 128.887 142.534C128.517 142.347 128.175 142.04 127.752 141.511L127.361 141.823ZM130.361 143.323L130.353 143.823C133.008 143.868 135.288 141.603 136.325 139.009L135.861 138.823L135.397 138.637C134.434 141.044 132.432 142.858 130.37 142.823L130.361 143.323ZM135.861 138.823L136.325 139.009C136.823 137.765 137.445 136.296 137.942 135.191C138.191 134.636 138.406 134.181 138.555 133.892C138.634 133.74 138.681 133.661 138.7 133.634C138.704 133.629 138.697 133.639 138.682 133.655C138.681 133.656 138.615 133.73 138.494 133.768C138.421 133.792 138.3 133.809 138.167 133.756C138.033 133.703 137.957 133.607 137.919 133.537C137.857 133.425 137.861 133.323 137.861 133.323H138.361H138.861C138.861 133.298 138.863 133.179 138.795 133.056C138.754 132.981 138.674 132.881 138.536 132.827C138.399 132.772 138.273 132.79 138.194 132.815C138.062 132.856 137.982 132.94 137.965 132.958C137.933 132.991 137.907 133.025 137.889 133.049C137.822 133.142 137.745 133.282 137.667 133.432C137.504 133.747 137.281 134.223 137.03 134.781C136.527 135.9 135.899 137.381 135.397 138.637L135.861 138.823ZM138.361 133.323H137.861C137.861 133.317 137.859 133.353 137.848 133.462C137.839 133.559 137.824 133.691 137.806 133.857C137.768 134.189 137.714 134.648 137.646 135.205C137.511 136.319 137.323 137.821 137.115 139.473C136.698 142.777 136.199 146.676 135.865 149.259L136.361 149.323L136.857 149.387C137.19 146.803 137.69 142.903 138.107 139.598C138.316 137.946 138.503 136.442 138.639 135.326C138.706 134.768 138.761 134.305 138.799 133.97C138.835 133.657 138.861 133.41 138.861 133.323H138.361ZM136.361 149.323L135.911 149.106L129.411 162.606L129.861 162.823L130.312 163.04L136.812 149.54L136.361 149.323ZM129.861 162.823C129.431 162.569 129.431 162.569 129.431 162.569C129.43 162.569 129.43 162.569 129.43 162.569C129.43 162.57 129.43 162.57 129.429 162.571C129.428 162.572 129.427 162.575 129.426 162.577C129.422 162.583 129.417 162.591 129.411 162.602C129.399 162.623 129.38 162.655 129.356 162.697C129.307 162.78 129.237 162.902 129.146 163.06C128.965 163.375 128.706 163.833 128.392 164.402C127.764 165.54 126.917 167.125 126.038 168.915C124.288 172.477 122.38 176.913 121.867 180.247L122.361 180.323L122.855 180.399C123.343 177.233 125.185 172.919 126.935 169.356C127.806 167.584 128.646 166.013 129.268 164.885C129.579 164.321 129.835 163.868 130.014 163.557C130.103 163.401 130.173 163.281 130.22 163.2C130.244 163.159 130.262 163.128 130.274 163.108C130.28 163.098 130.284 163.09 130.287 163.085C130.289 163.082 130.29 163.08 130.291 163.079C130.291 163.078 130.291 163.078 130.291 163.078C130.291 163.078 130.292 163.078 130.292 163.077C130.292 163.077 130.292 163.077 129.861 162.823ZM122.361 180.323L121.867 180.247C121.399 183.287 121.713 186.549 124.607 188.254L124.861 187.823L125.115 187.392C122.785 186.02 122.401 183.351 122.855 180.399L122.361 180.323ZM124.861 187.823L124.607 188.254C126.34 189.275 127.837 188.847 129.516 188.298L129.361 187.823L129.206 187.348C127.523 187.898 126.429 188.166 125.115 187.392L124.861 187.823ZM129.361 187.823L129.516 188.298C130.537 187.965 131.16 187.456 131.634 186.785C132.076 186.16 132.402 185.358 132.808 184.547L132.361 184.323L131.914 184.099C131.455 185.017 131.201 185.665 130.817 186.208C130.467 186.703 130.022 187.081 129.206 187.348L129.361 187.823ZM132.361 184.323L132.808 184.547C133.334 183.495 133.807 181.951 134.165 180.506C134.524 179.056 134.78 177.656 134.858 176.873L134.361 176.823L133.863 176.773C133.792 177.491 133.548 178.84 133.194 180.265C132.84 181.695 132.388 183.151 131.914 184.099L132.361 184.323ZM134.361 176.823L134.858 176.873C135.36 171.854 135.611 165.714 135.736 160.836C135.798 158.395 135.83 156.268 135.845 154.75C135.853 153.991 135.857 153.385 135.859 152.968C135.86 152.76 135.861 152.598 135.861 152.489C135.861 152.435 135.861 152.393 135.861 152.366C135.861 152.352 135.861 152.341 135.861 152.334C135.861 152.33 135.861 152.328 135.861 152.326C135.861 152.325 135.861 152.324 135.861 152.324C135.861 152.324 135.861 152.323 135.861 152.323C135.861 152.323 135.861 152.323 135.361 152.323C134.861 152.323 134.861 152.323 134.861 152.323C134.861 152.323 134.861 152.323 134.861 152.324C134.861 152.324 134.861 152.325 134.861 152.326C134.861 152.327 134.861 152.33 134.861 152.333C134.861 152.34 134.861 152.351 134.861 152.364C134.861 152.392 134.861 152.433 134.861 152.487C134.861 152.595 134.86 152.756 134.859 152.963C134.857 153.378 134.853 153.983 134.845 154.74C134.83 156.253 134.799 158.376 134.736 160.81C134.611 165.682 134.362 171.792 133.863 176.773L134.361 176.823ZM150.861 120.823L151.3 121.062L154.3 115.562L153.861 115.323L153.422 115.084L150.422 120.584L150.861 120.823ZM153.861 115.323C154.288 115.584 154.288 115.584 154.288 115.584C154.288 115.584 154.288 115.584 154.288 115.584C154.288 115.584 154.288 115.584 154.288 115.584C154.288 115.584 154.288 115.584 154.288 115.584C154.288 115.583 154.289 115.582 154.29 115.58C154.292 115.577 154.296 115.571 154.301 115.563C154.311 115.547 154.326 115.523 154.348 115.491C154.39 115.428 154.453 115.336 154.535 115.225C154.7 115.002 154.939 114.707 155.232 114.414C155.839 113.808 156.587 113.309 157.352 113.323L157.361 112.823L157.37 112.323C156.182 112.302 155.18 113.053 154.526 113.706C154.188 114.043 153.918 114.379 153.732 114.63C153.638 114.756 153.565 114.862 153.515 114.937C153.49 114.975 153.471 115.005 153.457 115.026C153.45 115.037 153.445 115.045 153.441 115.051C153.439 115.054 153.438 115.057 153.437 115.059C153.436 115.06 153.436 115.06 153.435 115.061C153.435 115.061 153.435 115.062 153.435 115.062C153.435 115.062 153.435 115.062 153.435 115.062C153.434 115.062 153.434 115.062 153.861 115.323ZM157.361 112.823L157.352 113.323C159.268 113.356 160.389 114.642 161.421 116.56L161.861 116.323L162.301 116.086C161.24 114.114 159.871 112.367 157.37 112.323L157.361 112.823ZM161.861 116.323L161.421 116.56C162.591 118.734 162.84 120.388 162.861 122.328L163.361 122.323L163.861 122.317C163.839 120.257 163.565 118.435 162.301 116.086L161.861 116.323ZM163.361 122.323L162.861 122.328C162.89 125.029 162.522 127.183 161.407 129.615L161.861 129.823L162.316 130.031C163.503 127.443 163.891 125.139 163.861 122.317L163.361 122.323ZM161.861 129.823L161.407 129.615C160.527 131.532 159.529 132.443 158.084 133.407L158.361 133.823L158.638 134.239C160.193 133.203 161.339 132.161 162.316 130.031L161.861 129.823ZM158.361 133.823L158.084 133.407C156.915 134.186 156.077 134.661 155.003 134.344L154.861 134.823L154.719 135.302C156.293 135.769 157.509 134.992 158.638 134.239L158.361 133.823ZM154.861 134.823L155.003 134.344C154.449 134.18 154.042 133.977 153.708 133.707C153.372 133.438 153.084 133.081 152.795 132.575L152.361 132.823L151.927 133.071C152.258 133.651 152.621 134.116 153.081 134.487C153.541 134.857 154.074 135.112 154.719 135.302L154.861 134.823ZM135.361 152.323L135.81 152.544L151.31 121.044L150.861 120.823L150.412 120.602L134.912 152.102L135.361 152.323ZM152.361 132.823L152.795 132.575C152.337 131.773 152.005 130.65 151.775 129.382C151.546 128.122 151.422 126.755 151.36 125.486C151.299 124.219 151.299 123.059 151.314 122.215C151.322 121.793 151.333 121.451 151.343 121.216C151.348 121.098 151.352 121.006 151.355 120.944C151.357 120.914 151.358 120.89 151.359 120.875C151.359 120.867 151.36 120.861 151.36 120.858C151.36 120.856 151.36 120.854 151.36 120.853C151.36 120.853 151.36 120.853 151.36 120.853C151.36 120.852 151.36 120.852 151.36 120.852C151.36 120.852 151.36 120.852 150.861 120.823C150.362 120.794 150.362 120.794 150.362 120.794C150.362 120.794 150.362 120.794 150.362 120.794C150.362 120.795 150.362 120.795 150.362 120.796C150.362 120.797 150.362 120.799 150.362 120.801C150.361 120.805 150.361 120.812 150.36 120.82C150.36 120.837 150.358 120.862 150.357 120.894C150.353 120.959 150.349 121.053 150.344 121.175C150.334 121.417 150.322 121.767 150.314 122.197C150.299 123.056 150.298 124.24 150.362 125.535C150.425 126.829 150.551 128.243 150.791 129.561C151.029 130.871 151.385 132.124 151.927 133.071L152.361 132.823ZM137.361 119.323L137.525 118.85C136.124 118.364 134.864 118.628 133.766 119.286C132.688 119.931 131.76 120.958 130.961 122.023L131.361 122.323L131.761 122.623C132.534 121.592 133.369 120.689 134.279 120.144C135.17 119.61 136.123 119.422 137.197 119.795L137.361 119.323ZM131.361 122.323L130.961 122.023C129.431 124.063 128.023 126.553 126.891 129.652L127.361 129.823L127.831 129.995C128.929 126.987 130.291 124.584 131.761 122.623L131.361 122.323ZM169.861 114.823L170.263 115.12L184.981 95.1785L184.579 94.8816L184.177 94.5846L169.458 114.526L169.861 114.823ZM184.579 94.8816L184.981 95.1785L185.763 94.1196L185.361 93.8226L184.958 93.5257L184.177 94.5846L184.579 94.8816ZM185.361 93.8226C185.773 94.1059 185.773 94.1059 185.773 94.1058C185.773 94.1057 185.773 94.1056 185.773 94.1055C185.773 94.1052 185.773 94.1048 185.774 94.1043C185.774 94.1033 185.775 94.1018 185.777 94.0998C185.78 94.0959 185.784 94.09 185.789 94.0823C185.799 94.0668 185.815 94.0439 185.836 94.0138C185.877 93.9536 185.938 93.8648 186.015 93.7502C186.171 93.5208 186.396 93.1879 186.675 92.7728C187.23 91.9428 187.998 90.7839 188.844 89.4681C190.532 86.8419 192.545 83.5725 193.808 81.0465L193.361 80.8229L192.913 80.5993C191.676 83.0733 189.689 86.3038 188.003 88.9274C187.161 90.2366 186.397 91.3901 185.844 92.2163C185.567 92.6293 185.343 92.9604 185.188 93.1881C185.111 93.302 185.051 93.3899 185.01 93.4494C184.99 93.4791 184.974 93.5017 184.964 93.5168C184.959 93.5244 184.955 93.53 184.952 93.5338C184.951 93.5357 184.95 93.5371 184.95 93.538C184.949 93.5385 184.949 93.5389 184.949 93.5391C184.949 93.5392 184.949 93.5393 184.949 93.5393C184.949 93.5394 184.949 93.5394 185.361 93.8226ZM193.361 80.8229L193.808 81.0465C195.056 78.5503 196.693 75.2766 197.892 72.0599C198.491 70.4508 198.986 68.8435 199.266 67.3446C199.546 65.8506 199.619 64.4319 199.349 63.2144L198.861 63.3229L198.373 63.4314C198.602 64.4639 198.551 65.7326 198.283 67.1606C198.017 68.5835 197.543 70.1325 196.955 71.7108C195.778 74.8691 194.165 78.0955 192.913 80.5993L193.361 80.8229ZM198.861 63.3229L199.349 63.2144C198.888 61.1408 197.819 59.0769 195.413 58.8256L195.361 59.3229L195.309 59.8202C197.031 60 197.933 61.4525 198.373 63.4314L198.861 63.3229ZM195.361 59.3229L195.413 58.8256C194.614 58.7422 193.859 58.8095 193.176 59.0881C192.489 59.3687 191.908 59.8512 191.445 60.5455L191.861 60.8229L192.277 61.1002C192.639 60.5572 193.068 60.2125 193.554 60.0139C194.046 59.8131 194.628 59.7491 195.309 59.8202L195.361 59.3229ZM191.861 60.8229L191.445 60.5455C189.396 63.6188 188.878 65.6906 187.88 69.1855L188.361 69.3229L188.841 69.4602C189.843 65.9552 190.326 64.027 192.277 61.1002L191.861 60.8229ZM188.361 69.3229L187.88 69.1855C187.276 71.2985 186.649 73.9345 186.173 76.0369C185.935 77.0892 185.735 78.0101 185.594 78.6679C185.523 78.9968 185.468 79.26 185.43 79.4412C185.411 79.5317 185.396 79.6018 185.386 79.6492C185.381 79.673 185.377 79.691 185.375 79.7032C185.374 79.7093 185.373 79.7139 185.372 79.7171C185.372 79.7186 185.371 79.7198 185.371 79.7206C185.371 79.721 185.371 79.7213 185.371 79.7215C185.371 79.7216 185.371 79.7217 185.371 79.7217C185.371 79.7218 185.371 79.7218 185.861 79.8229C186.35 79.9239 186.35 79.9239 186.35 79.9239C186.35 79.9239 186.35 79.9238 186.35 79.9237C186.35 79.9235 186.35 79.9233 186.351 79.9229C186.351 79.9222 186.351 79.921 186.351 79.9196C186.352 79.9166 186.353 79.9121 186.354 79.9061C186.356 79.8942 186.36 79.8764 186.365 79.853C186.375 79.8061 186.389 79.7366 186.408 79.6467C186.446 79.4668 186.501 79.2049 186.572 78.8774C186.712 78.2224 186.911 77.3054 187.149 76.2575C187.623 74.1595 188.246 71.5455 188.841 69.4602L188.361 69.3229ZM185.861 79.8229L185.362 79.7805L184.081 94.8392L184.579 94.8816L185.077 94.924L186.359 79.8653L185.861 79.8229ZM184.579 94.8816L184.081 94.8392L183.362 103.28L183.861 103.323L184.359 103.365L185.077 94.924L184.579 94.8816ZM183.861 103.323C183.361 103.3 183.361 103.3 183.361 103.3C183.361 103.3 183.361 103.301 183.361 103.301C183.361 103.301 183.361 103.302 183.361 103.302C183.361 103.304 183.361 103.306 183.361 103.308C183.361 103.313 183.36 103.321 183.36 103.332C183.359 103.353 183.357 103.384 183.356 103.424C183.352 103.505 183.347 103.624 183.34 103.776C183.326 104.08 183.306 104.515 183.283 105.043C183.236 106.098 183.174 107.52 183.111 108.989C182.986 111.919 182.861 115.059 182.861 115.823H183.361H183.861C183.861 115.087 183.985 111.977 184.11 109.032C184.173 107.563 184.235 106.142 184.282 105.087C184.305 104.56 184.325 104.125 184.339 103.821C184.346 103.669 184.351 103.55 184.355 103.469C184.356 103.429 184.358 103.398 184.359 103.377C184.359 103.367 184.36 103.359 184.36 103.354C184.36 103.351 184.36 103.349 184.36 103.348C184.36 103.347 184.36 103.346 184.36 103.346C184.36 103.346 184.36 103.346 184.36 103.346C184.36 103.346 184.36 103.346 183.861 103.323ZM183.361 115.823H182.861C182.861 116.523 182.769 117.955 182.984 119.189C183.092 119.81 183.287 120.442 183.652 120.935C184.033 121.45 184.589 121.795 185.342 121.823L185.361 121.323L185.379 120.823C184.953 120.807 184.67 120.63 184.455 120.34C184.224 120.028 184.066 119.572 183.969 119.017C183.774 117.897 183.861 116.623 183.861 115.823H183.361ZM185.361 121.323L185.342 121.823C186.563 121.868 187.474 121.048 188.142 120.188C188.803 119.336 189.373 118.235 189.782 117.591L189.361 117.323L188.939 117.054C188.447 117.828 187.982 118.762 187.352 119.575C186.728 120.378 186.09 120.85 185.379 120.823L185.361 121.323ZM189.361 117.323L189.782 117.591C191.552 114.811 194.565 108.782 197.124 103.478C198.406 100.819 199.579 98.3328 200.431 96.5113C200.857 95.6005 201.203 94.8558 201.442 94.3387C201.562 94.0801 201.655 93.8785 201.718 93.7414C201.75 93.6729 201.774 93.6205 201.79 93.5852C201.798 93.5676 201.805 93.5542 201.809 93.5452C201.811 93.5407 201.812 93.5374 201.813 93.5351C201.814 93.534 201.814 93.5331 201.815 93.5325C201.815 93.5322 201.815 93.532 201.815 93.5319C201.815 93.5317 201.815 93.5316 201.361 93.3229C200.906 93.1141 200.906 93.1142 200.906 93.1143C200.906 93.1145 200.906 93.1147 200.906 93.1149C200.906 93.1155 200.905 93.1163 200.905 93.1174C200.904 93.1196 200.902 93.123 200.9 93.1274C200.896 93.1363 200.89 93.1495 200.882 93.1671C200.866 93.2021 200.842 93.2543 200.81 93.3226C200.747 93.4592 200.654 93.6604 200.535 93.9184C200.296 94.4345 199.95 95.1781 199.525 96.0876C198.674 97.9067 197.503 100.389 196.223 103.043C193.656 108.364 190.67 114.334 188.939 117.054L189.361 117.323ZM201.361 93.3229C201.829 93.4981 201.829 93.4981 201.829 93.4982C201.829 93.4982 201.829 93.4982 201.829 93.4982C201.829 93.4982 201.829 93.4981 201.829 93.498C201.829 93.4977 201.829 93.4972 201.83 93.4966C201.83 93.4952 201.831 93.493 201.832 93.49C201.834 93.484 201.838 93.4747 201.843 93.4623C201.852 93.4376 201.867 93.4004 201.886 93.3523C201.924 93.256 201.98 93.1159 202.054 92.9427C202.201 92.596 202.414 92.1189 202.678 91.5979C203.215 90.5375 203.929 89.3635 204.689 88.6995L204.361 88.3229L204.032 87.9462C203.115 88.7464 202.329 90.0725 201.786 91.1461C201.509 91.692 201.287 92.1904 201.133 92.5524C201.056 92.7336 200.997 92.8811 200.956 92.9839C200.936 93.0353 200.92 93.0756 200.909 93.1033C200.904 93.1172 200.9 93.128 200.897 93.1354C200.896 93.1391 200.894 93.142 200.894 93.1441C200.893 93.1451 200.893 93.1459 200.893 93.1465C200.893 93.1468 200.893 93.1471 200.893 93.1473C200.892 93.1474 200.892 93.1475 200.892 93.1475C200.892 93.1476 200.892 93.1477 201.361 93.3229ZM204.361 88.3229L204.689 88.6995C205.502 87.9904 206.058 87.715 206.41 87.6706C206.569 87.6506 206.674 87.6789 206.753 87.7256C206.839 87.776 206.937 87.8723 207.033 88.0515C207.234 88.4244 207.37 89.0419 207.43 89.9051C207.489 90.7542 207.472 91.7837 207.406 92.94C207.274 95.2574 206.953 98.0106 206.692 100.752C206.433 103.475 206.234 106.184 206.362 108.352L206.861 108.323L207.36 108.294C207.237 106.212 207.428 103.573 207.688 100.847C207.945 98.1383 208.271 95.3392 208.405 92.9968C208.471 91.8232 208.491 90.7458 208.427 89.8356C208.365 88.9395 208.219 88.145 207.914 87.5779C207.757 87.287 207.546 87.0313 207.26 86.8631C206.967 86.6912 206.635 86.6344 206.286 86.6784C205.622 86.762 204.874 87.2107 204.032 87.9462L204.361 88.3229ZM206.861 108.323L206.362 108.352C206.388 108.807 206.386 109.157 206.396 109.498C206.406 109.818 206.427 110.139 206.524 110.434C206.743 111.103 207.286 111.463 208.189 111.793L208.361 111.323L208.532 110.853C207.695 110.547 207.543 110.332 207.474 110.122C207.427 109.977 207.406 109.783 207.396 109.467C207.387 109.171 207.387 108.763 207.36 108.294L206.861 108.323ZM208.361 111.323L208.189 111.793C209.301 112.199 210.214 112.065 210.985 111.574C211.714 111.111 212.277 110.35 212.777 109.6L212.361 109.323L211.945 109.046C211.444 109.796 210.982 110.391 210.448 110.731C209.957 111.044 209.37 111.16 208.532 110.853L208.361 111.323ZM212.361 109.323L212.777 109.6C214.428 107.124 216.449 102.316 218.473 97.4454C220.513 92.5345 222.564 87.538 224.293 84.5748L223.861 84.3229L223.429 84.071C221.657 87.1077 219.575 92.1855 217.549 97.0617C215.507 101.978 213.528 106.671 211.945 109.046L212.361 109.323ZM223.861 84.3229L224.293 84.5748C224.395 84.3997 224.536 84.1028 224.688 83.7818C224.846 83.4498 225.024 83.0696 225.21 82.6979C225.397 82.3247 225.586 81.9728 225.761 81.6976C225.848 81.5599 225.927 81.4501 225.995 81.3698C226.068 81.283 226.106 81.2588 226.105 81.2591L225.861 80.8229L225.616 80.3867C225.462 80.473 225.333 80.6037 225.231 80.7245C225.124 80.8517 225.018 81.0021 224.917 81.1612C224.715 81.4795 224.508 81.867 224.316 82.2498C224.124 82.634 223.94 83.0264 223.785 83.3539C223.624 83.6924 223.504 83.942 223.429 84.071L223.861 84.3229ZM230.361 100.323L230.137 100.77C230.736 101.069 231.28 100.996 231.757 100.831C231.985 100.752 232.21 100.648 232.413 100.554C232.625 100.457 232.822 100.367 233.027 100.294L232.861 99.8229L232.694 99.3515C232.439 99.4415 232.203 99.5502 231.996 99.6454C231.781 99.7442 231.602 99.8263 231.429 99.8862C231.104 99.9989 230.859 100.013 230.584 99.8757L230.361 100.323ZM232.861 99.8229L233.027 100.294C233.986 99.9552 234.688 99.0794 235.128 98.3788C235.355 98.0169 235.529 97.6751 235.646 97.4241C235.705 97.2982 235.749 97.1941 235.78 97.1205C235.795 97.0837 235.807 97.0544 235.815 97.0338C235.819 97.0235 235.822 97.0153 235.825 97.0094C235.826 97.0064 235.827 97.0041 235.827 97.0023C235.828 97.0014 235.828 97.0006 235.828 97C235.828 96.9997 235.828 96.9995 235.829 96.9992C235.829 96.9991 235.829 96.999 235.829 96.9989C235.829 96.9988 235.829 96.9987 235.361 96.8229C234.893 96.6471 234.893 96.647 234.893 96.6469C234.893 96.6469 234.893 96.6468 234.893 96.6468C234.893 96.6467 234.893 96.6467 234.893 96.6466C234.893 96.6466 234.893 96.6468 234.893 96.6471C234.892 96.6476 234.892 96.6487 234.891 96.6504C234.89 96.6538 234.888 96.6594 234.885 96.6671C234.879 96.6825 234.869 96.7062 234.856 96.7371C234.831 96.7992 234.792 96.8901 234.74 97.0018C234.635 97.2257 234.481 97.529 234.281 97.847C233.867 98.5065 233.319 99.1307 232.694 99.3515L232.861 99.8229ZM235.361 96.8229C235.818 97.026 235.818 97.0259 235.818 97.0258C235.818 97.0257 235.818 97.0255 235.818 97.0253C235.818 97.0249 235.818 97.0243 235.819 97.0235C235.819 97.0219 235.82 97.0194 235.822 97.0161C235.825 97.0096 235.829 96.9999 235.835 96.9871C235.846 96.9614 235.863 96.9233 235.885 96.8734C235.93 96.7737 235.995 96.6269 236.078 96.4389C236.245 96.0629 236.486 95.5219 236.779 94.8616C237.365 93.5412 238.162 91.7442 239.005 89.8378C240.692 86.0264 242.569 81.7732 243.32 80.0198L242.861 79.8229L242.401 79.6259C241.653 81.3726 239.779 85.6193 238.091 89.433C237.247 91.3391 236.45 93.1358 235.865 94.456C235.572 95.1161 235.331 95.6571 235.164 96.033C235.081 96.221 235.016 96.3677 234.971 96.4674C234.949 96.5173 234.932 96.5554 234.921 96.581C234.915 96.5938 234.911 96.6035 234.908 96.61C234.907 96.6133 234.906 96.6157 234.905 96.6174C234.904 96.6182 234.904 96.6188 234.904 96.6192C234.904 96.6194 234.904 96.6196 234.904 96.6197C234.904 96.6198 234.904 96.6198 235.361 96.8229ZM242.861 79.8229L243.32 80.0198C244.066 78.2788 244.773 76.2266 245.404 74.6618C245.728 73.8589 246.037 73.1691 246.337 72.6503C246.652 72.1043 246.902 71.8519 247.064 71.7798L246.861 71.3229L246.658 70.866C246.176 71.0799 245.791 71.5953 245.471 72.1498C245.135 72.7316 244.805 73.4747 244.477 74.2878C243.805 75.9551 243.155 77.867 242.401 79.6259L242.861 79.8229ZM246.861 71.3229L247.064 71.7798C247.551 71.5633 247.928 71.5364 248.23 71.611C248.534 71.6861 248.825 71.8799 249.109 72.2211C249.696 72.9249 250.159 74.1396 250.564 75.6987C250.965 77.2419 251.29 79.032 251.643 80.8408C251.995 82.6362 252.375 84.4468 252.886 85.981L253.361 85.8229L253.835 85.6648C253.346 84.199 252.977 82.447 252.625 80.6488C252.276 78.8638 251.943 77.0289 251.532 75.4471C251.125 73.8812 250.619 72.4709 249.878 71.5809C249.498 71.1253 249.035 70.78 248.47 70.6402C247.903 70.5 247.295 70.5825 246.658 70.866L246.861 71.3229ZM253.361 85.8229L252.886 85.981C253.134 86.7254 253.527 87.6908 254.061 88.5197C254.583 89.3285 255.308 90.1142 256.259 90.3124L256.361 89.8229L256.463 89.3334C255.92 89.2203 255.387 88.7294 254.902 87.9778C254.43 87.2461 254.069 86.3672 253.835 85.6648L253.361 85.8229ZM256.361 89.8229L256.259 90.3124C256.834 90.4323 257.325 90.538 257.791 90.4666C258.292 90.3898 258.703 90.1251 259.19 89.6992L258.861 89.3229L258.531 88.9466C258.089 89.3339 257.855 89.4452 257.64 89.4781C257.39 89.5164 257.096 89.4655 256.463 89.3334L256.361 89.8229ZM258.861 89.3229L259.19 89.6992C261.225 87.9182 263.498 85.2638 265.251 83.0727C266.13 81.9737 266.884 80.9849 267.417 80.2706C267.684 79.9134 267.896 79.6247 268.042 79.4251C268.115 79.3252 268.171 79.2476 268.209 79.1949C268.228 79.1685 268.243 79.1483 268.252 79.1346C268.257 79.1278 268.261 79.1226 268.264 79.1191C268.265 79.1173 268.266 79.1159 268.266 79.115C268.267 79.1145 268.267 79.1142 268.267 79.1139C268.267 79.1138 268.267 79.1137 268.267 79.1136C268.267 79.1136 268.268 79.1135 267.861 78.8229C267.454 78.5323 267.454 78.5323 267.454 78.5323C267.454 78.5323 267.454 78.5324 267.454 78.5325C267.454 78.5327 267.453 78.5329 267.453 78.5333C267.452 78.5341 267.452 78.5353 267.45 78.5369C267.448 78.5401 267.445 78.545 267.44 78.5515C267.431 78.5646 267.417 78.5841 267.398 78.6099C267.361 78.6613 267.306 78.7375 267.234 78.8359C267.09 79.0328 266.881 79.3183 266.616 79.672C266.088 80.3797 265.341 81.3595 264.47 82.448C262.723 84.632 260.496 87.2275 258.531 88.9466L258.861 89.3229ZM267.861 78.8229C268.254 79.1318 268.254 79.1318 268.254 79.1318C268.254 79.1318 268.254 79.1318 268.254 79.1317C268.254 79.1317 268.254 79.1317 268.254 79.1316C268.254 79.1315 268.254 79.1313 268.254 79.1311C268.255 79.1307 268.255 79.1301 268.256 79.1293C268.257 79.1276 268.259 79.1252 268.261 79.122C268.266 79.1156 268.274 79.1062 268.284 79.0937C268.303 79.0687 268.332 79.0318 268.37 78.9835C268.445 78.8869 268.555 78.7451 268.696 78.5635C268.976 78.2004 269.377 77.6784 269.859 77.0421L269.46 76.7403L269.061 76.4386C268.582 77.0719 268.183 77.5912 267.905 77.9519C267.765 78.1323 267.656 78.2731 267.581 78.3686C267.544 78.4163 267.515 78.4528 267.496 78.4773C267.487 78.4895 267.479 78.4987 267.475 78.5049C267.472 78.508 267.47 78.5103 267.469 78.5118C267.469 78.5125 267.468 78.5131 267.468 78.5135C267.468 78.5137 267.468 78.5138 267.468 78.5139C267.468 78.5139 267.468 78.5139 267.468 78.514C267.467 78.514 267.467 78.514 267.467 78.514C267.467 78.514 267.467 78.514 267.861 78.8229ZM269.46 76.7403L269.859 77.0421C271.718 74.5856 274.797 70.4015 276.789 67.0801L276.361 66.8229L275.932 66.5656C273.969 69.8365 270.92 73.983 269.061 76.4386L269.46 76.7403ZM276.361 66.8229L276.789 67.0801C278.711 63.8773 279.861 61.4591 279.861 57.8229H279.361H278.861C278.861 61.1865 277.822 63.4147 275.932 66.5656L276.361 66.8229ZM279.361 57.8229H279.861C279.861 56.9277 279.879 56.0961 279.674 55.3712C279.457 54.5981 278.999 53.9659 278.133 53.4035L277.861 53.8228L277.588 54.2421C278.276 54.689 278.568 55.1306 278.712 55.6422C278.869 56.2019 278.861 56.8656 278.861 57.8229H279.361ZM277.861 53.8228L278.133 53.4036L278.073 53.3645L277.801 53.7837L277.528 54.2029L277.588 54.242L277.861 53.8228ZM277.801 53.7837L278.073 53.3645C277.128 52.7502 276.14 52.0849 274.772 52.3308L274.861 52.8229L274.949 53.315C275.872 53.1491 276.534 53.5563 277.528 54.2029L277.801 53.7837ZM274.861 52.8229L274.772 52.3308C274.036 52.4632 273.398 52.6797 272.839 53.045C272.278 53.412 271.825 53.9104 271.432 54.5656L271.861 54.8228L272.289 55.0801C272.621 54.5278 272.975 54.1508 273.386 53.882C273.8 53.6115 274.3 53.4317 274.949 53.315L274.861 52.8229ZM271.861 54.8228L271.432 54.5656C269.88 57.1521 269.082 61.274 268.873 62.2144L269.361 62.3229L269.849 62.4314C270.074 61.4193 270.841 57.4935 272.289 55.0801L271.861 54.8228ZM269.361 62.3229L268.873 62.2144C267.851 66.8112 268.366 69.3997 268.864 73.878L269.361 73.8228L269.858 73.7676C269.355 69.2458 268.87 66.8344 269.849 62.4314L269.361 62.3229ZM269.361 73.8228L268.864 73.878C268.978 74.9095 268.944 75.8227 268.96 76.7489L269.46 76.7403L269.96 76.7318C269.945 75.8684 269.979 74.8612 269.858 73.7676L269.361 73.8228ZM269.46 76.7403L268.96 76.7489C268.986 78.2742 269.153 79.7349 270.496 81.1652L270.861 80.8229L271.225 80.4806C270.14 79.3246 269.985 78.1761 269.96 76.7318L269.46 76.7403ZM270.861 80.8229L270.496 81.1652C271.059 81.7646 272.073 82.307 273.079 82.6334C273.591 82.7993 274.124 82.9171 274.626 82.9563C275.122 82.9949 275.624 82.9599 276.05 82.7857L275.861 82.3229L275.671 81.8601C275.446 81.9525 275.118 81.9915 274.704 81.9593C274.297 81.9275 273.842 81.8295 273.388 81.6821C272.461 81.3817 271.626 80.9076 271.225 80.4806L270.861 80.8229ZM275.861 82.3229L276.05 82.7857C281.557 80.5328 293.063 75.53 303.186 71.0933C308.249 68.8744 312.968 66.7961 316.422 65.2725C318.149 64.5108 319.559 63.8877 320.537 63.455C321.027 63.2387 321.408 63.0699 321.667 62.9553C321.797 62.898 321.896 62.8542 321.962 62.8247C321.996 62.81 322.021 62.7988 322.038 62.7913C322.046 62.7876 322.052 62.7848 322.057 62.7829C322.059 62.782 322.06 62.7813 322.062 62.7808C322.062 62.7805 322.062 62.7804 322.063 62.7802C322.063 62.7801 322.063 62.7801 321.861 62.3229C321.658 61.8657 321.658 61.8658 321.658 61.8659C321.658 61.866 321.657 61.8662 321.657 61.8664C321.656 61.8669 321.654 61.8676 321.652 61.8685C321.648 61.8704 321.641 61.8732 321.633 61.877C321.616 61.8844 321.591 61.8956 321.558 61.9103C321.491 61.9397 321.392 61.9835 321.263 62.0408C321.004 62.1554 320.622 62.3241 320.133 62.5404C319.155 62.973 317.745 63.596 316.018 64.3576C312.565 65.8809 307.847 67.9589 302.785 70.1774C292.658 74.6157 281.164 79.613 275.671 81.8601L275.861 82.3229ZM225.861 80.8229L226.105 81.2591C226.995 80.7608 227.432 80.8288 227.665 80.9867C227.952 81.1822 228.205 81.678 228.356 82.6091C228.652 84.4328 228.467 87.2581 228.361 90.3055L228.861 90.3229L229.36 90.3403C229.463 87.3778 229.66 84.3997 229.343 82.4491C229.188 81.4931 228.887 80.6091 228.227 80.1599C227.511 79.6731 226.608 79.8315 225.616 80.3867L225.861 80.8229ZM228.861 90.3229L228.361 90.3055C228.259 93.2291 228.384 95.6386 228.666 97.3925C228.807 98.2677 228.99 98.9975 229.212 99.5521C229.423 100.078 229.712 100.558 230.137 100.77L230.361 100.323L230.584 99.8757C230.509 99.8383 230.336 99.6686 230.14 99.1801C229.956 98.7202 229.788 98.0701 229.654 97.2337C229.385 95.5644 229.26 93.224 229.36 90.3403L228.861 90.3229Z" fill="white"/>
</g>
<defs>
<filter id="filter0_dd_3562_50" x="15.7402" y="25.3436" width="333.716" height="190.303" filterUnits="userSpaceOnUse" color-interpolation-filters="sRGB">
<feFlood flood-opacity="0" result="BackgroundImageFix"/>
<feColorMatrix in="SourceAlpha" type="matrix" values="0 0 0 0 0 0 0 0 0 0 0 0 0 0 0 0 0 0 127 0" result="hardAlpha"/>
<feOffset/>
<feGaussianBlur stdDeviation="2.5"/>
<feComposite in2="hardAlpha" operator="out"/>
<feColorMatrix type="matrix" values="0 0 0 0 0.792856 0 0 0 0 0.256314 0 0 0 0 0.565858 0 0 0 1 0"/>
<feBlend mode="normal" in2="BackgroundImageFix" result="effect1_dropShadow_3562_50"/>
<feColorMatrix in="SourceAlpha" type="matrix" values="0 0 0 0 0 0 0 0 0 0 0 0 0 0 0 0 0 0 127 0" result="hardAlpha"/>
<feOffset/>
<feGaussianBlur stdDeviation="12"/>
<feComposite in2="hardAlpha" operator="out"/>
<feColorMatrix type="matrix" values="0 0 0 0 1 0 0 0 0 0.0730732 0 0 0 0 0.87641 0 0 0 1 0"/>
<feBlend mode="normal" in2="effect1_dropShadow_3562_50" result="effect2_dropShadow_3562_50"/>
<feBlend mode="normal" in="SourceGraphic" in2="effect2_dropShadow_3562_50" result="shape"/>
</filter>
<clipPath id="clip0_3562_50">
<rect width="335.357" height="151.005" fill="white" transform="translate(0 86.7967) rotate(-15)"/>
</clipPath>
</defs>
</svg>
